<?xml version="1.0" encoding="UTF-8" standalone="no"?>
<!-- Created with Inkscape (http://www.inkscape.org/) -->

<svg
   xmlns:dc="http://purl.org/dc/elements/1.1/"
   xmlns:cc="http://creativecommons.org/ns#"
   xmlns:rdf="http://www.w3.org/1999/02/22-rdf-syntax-ns#"
   xmlns:svg="http://www.w3.org/2000/svg"
   xmlns="http://www.w3.org/2000/svg"
   xmlns:sodipodi="http://sodipodi.sourceforge.net/DTD/sodipodi-0.dtd"
   xmlns:inkscape="http://www.inkscape.org/namespaces/inkscape"
   width="200"
   height="200"
   viewBox="0 0 52.916665 52.916668"
   version="1.1"
   id="svg5520"
   inkscape:version="0.92.1 r15371"
   sodipodi:docname="logo-itsco.svg">
  <defs
     id="defs5514" />
  <sodipodi:namedview
     id="base"
     pagecolor="#ffffff"
     bordercolor="#666666"
     borderopacity="1.0"
     inkscape:pageopacity="0.0"
     inkscape:pageshadow="2"
     inkscape:zoom="1.979899"
     inkscape:cx="130.24788"
     inkscape:cy="115.21107"
     inkscape:document-units="px"
     inkscape:current-layer="layer1"
     showgrid="false"
     units="px"
     inkscape:window-width="1366"
     inkscape:window-height="705"
     inkscape:window-x="-8"
     inkscape:window-y="-8"
     inkscape:window-maximized="1" />
  <metadata
     id="metadata5517">
    <rdf:RDF>
      <cc:Work
         rdf:about="">
        <dc:format>image/svg+xml</dc:format>
        <dc:type
           rdf:resource="http://purl.org/dc/dcmitype/StillImage" />
        <dc:title></dc:title>
      </cc:Work>
    </rdf:RDF>
  </metadata>
  <g
     inkscape:label="Capa 1"
     inkscape:groupmode="layer"
     id="layer1"
     transform="translate(0,-244.08332)">
    <g
       id="g6831"
       transform="matrix(0.53995068,0,0,0.53995068,4.0085986,125.07476)"
       style="stroke-width:1.85202098;fill:#333333">
      <path
         d="m 5.666182,246.00527 -0.595424,0.90727 -4.130242,-2.71059 0.595425,-0.90727 z"
         style="font-style:normal;font-variant:normal;font-weight:normal;font-stretch:normal;font-size:7.05555534px;line-height:1.25;font-family:Haettenschweiler;-inkscape-font-specification:Haettenschweiler;letter-spacing:0.55297917px;word-spacing:0px;fill:#333333;fill-opacity:1;stroke:none;stroke-width:0.49001387"
         id="path4540"
         inkscape:connector-curvature="0" />
      <path
         d="m 7.756379,243.12758 -0.668891,0.89359 -2.548917,-0.98704 2.107119,1.57726 -0.542958,0.72535 -3.954984,-2.96046 0.739083,-0.98737 2.175344,0.85373 -1.803738,-1.35017 0.542958,-0.72535 z"
         style="font-style:normal;font-variant:normal;font-weight:normal;font-stretch:normal;font-size:7.05555534px;line-height:1.25;font-family:Haettenschweiler;-inkscape-font-specification:Haettenschweiler;letter-spacing:0.55297917px;word-spacing:0px;fill:#333333;fill-opacity:1;stroke:none;stroke-width:0.49001387"
         id="path4542"
         inkscape:connector-curvature="0" />
      <path
         d="m 6.776387,241.20801 0.652695,-0.7427 0.851386,0.74821 q 0.126802,0.11144 0.26098,-0.0412 0.129629,-0.1475 0.0028,-0.25894 l -0.439926,-0.38661 q -0.201848,-0.17739 -0.710083,-0.14705 -0.961735,0.0767 -1.246553,0.0511 -0.284819,-0.0256 -0.491842,-0.2075 l -0.416636,-0.36615 q -0.721995,-0.6345 0.105814,-1.57646 0.741389,-0.84362 1.39869,-0.26597 l 0.641774,0.564 -0.652696,0.7427 -0.683179,-0.60039 q -0.111275,-0.0978 -0.218162,0.0238 -0.125081,0.14233 0.08971,0.33109 l 0.25431,0.19597 q 0.207024,0.18193 0.722396,0.14869 0.937111,-0.08 1.251728,-0.0466 0.316892,0.0308 0.562733,0.24688 l 0.473567,0.41617 q 0.74011,0.65043 -0.08997,1.59497 -0.800518,0.91091 -1.473346,0.31961 z"
         style="font-style:normal;font-variant:normal;font-weight:normal;font-stretch:normal;font-size:7.05555534px;line-height:1.25;font-family:Haettenschweiler;-inkscape-font-specification:Haettenschweiler;letter-spacing:0.55297917px;word-spacing:0px;fill:#333333;fill-opacity:1;stroke:none;stroke-width:0.49001387"
         id="path4544"
         inkscape:connector-curvature="0" />
      <path
         d="m 9.038342,235.43828 -0.432298,0.42517 3.012369,3.06293 -0.773715,0.76094 -3.01237,-3.06293 -0.432298,0.42516 -0.451734,-0.45931 1.638311,-1.61127 z"
         style="font-style:normal;font-variant:normal;font-weight:normal;font-stretch:normal;font-size:7.05555534px;line-height:1.25;font-family:Haettenschweiler;-inkscape-font-specification:Haettenschweiler;letter-spacing:0.55297917px;word-spacing:0px;fill:#333333;fill-opacity:1;stroke:none;stroke-width:0.49001387"
         id="path4546"
         inkscape:connector-curvature="0" />
      <path
         d="m 13.417016,237.29677 -0.815632,0.71583 -3.258736,-3.71307 0.815632,-0.71583 z"
         style="font-style:normal;font-variant:normal;font-weight:normal;font-stretch:normal;font-size:7.05555534px;line-height:1.25;font-family:Haettenschweiler;-inkscape-font-specification:Haettenschweiler;letter-spacing:0.55297917px;word-spacing:0px;fill:#333333;fill-opacity:1;stroke:none;stroke-width:0.49001387"
         id="path4548"
         inkscape:connector-curvature="0" />
      <path
         d="m 13.158063,231.99642 -0.477682,0.37345 2.645972,3.38448 -0.854942,0.66839 -2.645972,-3.38448 -0.477682,0.37344 -0.39679,-0.50753 1.810306,-1.41529 z"
         style="font-style:normal;font-variant:normal;font-weight:normal;font-stretch:normal;font-size:7.05555534px;line-height:1.25;font-family:Haettenschweiler;-inkscape-font-specification:Haettenschweiler;letter-spacing:0.55297917px;word-spacing:0px;fill:#333333;fill-opacity:1;stroke:none;stroke-width:0.49001387"
         id="path4550"
         inkscape:connector-curvature="0" />
      <path
         d="m 13.660663,230.83245 0.901735,-0.60377 2.307761,3.44663 q 0.08242,0.12309 0.234141,0.0215 0.148857,-0.0997 0.06644,-0.22276 l -2.30776,-3.44664 0.901735,-0.60377 2.275176,3.39797 q 0.237676,0.35497 0.07316,0.74705 -0.164515,0.39209 -0.625401,0.70068 -0.426535,0.2856 -0.858349,0.32182 -0.42895,0.0343 -0.689627,-0.35502 z"
         style="font-style:normal;font-variant:normal;font-weight:normal;font-stretch:normal;font-size:7.05555534px;line-height:1.25;font-family:Haettenschweiler;-inkscape-font-specification:Haettenschweiler;letter-spacing:0.55297917px;word-spacing:0px;fill:#333333;fill-opacity:1;stroke:none;stroke-width:0.49001387"
         id="path4552"
         inkscape:connector-curvature="0" />
      <path
         d="m 19.02979,228.26783 -0.527193,0.29952 2.122158,3.73529 -0.943556,0.53607 -2.122158,-3.73529 -0.527194,0.29952 -0.318238,-0.56014 1.997943,-1.13511 z"
         style="font-style:normal;font-variant:normal;font-weight:normal;font-stretch:normal;font-size:7.05555534px;line-height:1.25;font-family:Haettenschweiler;-inkscape-font-specification:Haettenschweiler;letter-spacing:0.55297917px;word-spacing:0px;fill:#333333;fill-opacity:1;stroke:none;stroke-width:0.49001387"
         id="path4555"
         inkscape:connector-curvature="0" />
      <path
         d="m 21.450038,230.89303 -1.366444,-2.87126 q -0.413042,-0.86791 0.713063,-1.40382 1.110551,-0.52852 1.520632,0.33317 l 1.366443,2.87125 q 0.185054,0.38885 -0.02536,0.74843 -0.208778,0.35498 -0.706504,0.59185 -1.119883,0.53296 -1.501835,-0.26962 z m 1.300739,-0.5618 -1.446387,-3.03924 q -0.06366,-0.13376 -0.222309,-0.0583 -0.164871,0.0785 -0.101212,0.21223 l 1.446386,3.03924 q 0.06366,0.13376 0.228531,0.0553 0.15865,-0.0755 0.09499,-0.20927 z"
         style="font-style:normal;font-variant:normal;font-weight:normal;font-stretch:normal;font-size:7.05555534px;line-height:1.25;font-family:Haettenschweiler;-inkscape-font-specification:Haettenschweiler;letter-spacing:0.55297917px;word-spacing:0px;fill:#333333;fill-opacity:1;stroke:none;stroke-width:0.49001387"
         id="path4557"
         inkscape:connector-curvature="0" />
      <path
         d="m 26.454292,225.06328 -0.570001,0.20674 1.464824,4.03859 -1.020173,0.37002 -1.464824,-4.03859 -0.570001,0.20675 -0.219665,-0.60563 2.160176,-0.78351 z"
         style="font-style:normal;font-variant:normal;font-weight:normal;font-stretch:normal;font-size:7.05555534px;line-height:1.25;font-family:Haettenschweiler;-inkscape-font-specification:Haettenschweiler;letter-spacing:0.64293748px;word-spacing:0px;fill:#333333;fill-opacity:1;stroke:none;stroke-width:0.49001387"
         id="path4563"
         inkscape:connector-curvature="0" />
      <path
         d="m 30.766276,228.26056 -2.040257,0.58395 -1.359388,-4.74956 2.027008,-0.58016 0.175374,0.61274 -0.983695,0.28155 0.366865,1.28178 0.887644,-0.25405 0.164946,0.5763 -0.887644,0.25406 0.477777,1.6693 0.996943,-0.28534 z"
         style="font-style:normal;font-variant:normal;font-weight:normal;font-stretch:normal;font-size:7.05555534px;line-height:1.25;font-family:Haettenschweiler;-inkscape-font-specification:Haettenschweiler;letter-spacing:0.64293748px;word-spacing:0px;fill:#333333;fill-opacity:1;stroke:none;stroke-width:0.49001387"
         id="path4565"
         inkscape:connector-curvature="0" />
      <path
         d="m 33.225912,224.4253 -0.967602,0.20336 -0.201242,-0.95748 q -0.0248,-0.118 -0.169773,-0.0875 -0.151714,0.0319 -0.126913,0.14988 l 0.705057,3.35458 q 0.0248,0.118 0.176515,0.0861 0.144972,-0.0305 0.120171,-0.14847 l -0.250845,-1.19349 0.967602,-0.20337 0.25793,1.22721 q 0.07228,0.34388 -0.220933,0.62377 -0.293918,0.27652 -0.718719,0.3658 -1.227202,0.25793 -1.410021,-0.6119 l -0.654038,-3.11183 q -0.197699,-0.94063 1.029503,-1.19856 1.099088,-0.231 1.279072,0.62534 z"
         style="font-style:normal;font-variant:normal;font-weight:normal;font-stretch:normal;font-size:7.05555534px;line-height:1.25;font-family:Haettenschweiler;-inkscape-font-specification:Haettenschweiler;letter-spacing:0.64293748px;word-spacing:0px;fill:#333333;fill-opacity:1;stroke:none;stroke-width:0.49001387"
         id="path4567"
         inkscape:connector-curvature="0" />
      <path
         d="m 37.499283,227.06568 -1.107223,0.14137 -1.064667,-2.51748 0.333354,2.61086 -0.898764,0.11475 -0.625692,-4.90048 1.223412,-0.15621 0.900481,2.15641 -0.285357,-2.23495 0.898764,-0.11475 z"
         style="font-style:normal;font-variant:normal;font-weight:normal;font-stretch:normal;font-size:7.05555534px;line-height:1.25;font-family:Haettenschweiler;-inkscape-font-specification:Haettenschweiler;letter-spacing:0.64293748px;word-spacing:0px;fill:#333333;fill-opacity:1;stroke:none;stroke-width:0.49001387"
         id="path4569"
         inkscape:connector-curvature="0" />
      <path
         d="m 38.336361,226.15233 -0.145226,-3.1765 q -0.0439,-0.96018 1.201926,-1.01714 1.22861,-0.0562 1.2722,0.89712 l 0.14522,3.17651 q 0.0197,0.43019 -0.31378,0.67994 -0.33017,0.24616 -0.88081,0.27134 -1.238936,0.0566 -1.27953,-0.83127 z m 1.41682,-0.013 -0.15373,-3.36234 q -0.007,-0.14799 -0.18228,-0.13996 -0.1824,0.008 -0.17563,0.15632 l 0.15372,3.36234 q 0.007,0.14799 0.18917,0.13965 0.17551,-0.008 0.16875,-0.15601 z"
         style="font-style:normal;font-variant:normal;font-weight:normal;font-stretch:normal;font-size:7.05555534px;line-height:1.25;font-family:Haettenschweiler;-inkscape-font-specification:Haettenschweiler;letter-spacing:0.64293748px;word-spacing:0px;fill:#333333;fill-opacity:1;stroke:none;stroke-width:0.49001387"
         id="path4571"
         inkscape:connector-curvature="0" />
      <path
         d="m 43.773031,226.93699 -2.03534,-0.0538 0.13058,-4.93854 1.08483,0.0287 -0.11383,4.30487 0.95052,0.0251 z"
         style="font-style:normal;font-variant:normal;font-weight:normal;font-stretch:normal;font-size:7.05555534px;line-height:1.25;font-family:Haettenschweiler;-inkscape-font-specification:Haettenschweiler;letter-spacing:0.64293748px;word-spacing:0px;fill:#333333;fill-opacity:1;stroke:none;stroke-width:0.49001387"
         id="path4573"
         inkscape:connector-curvature="0" />
      <path
         d="m 44.660451,226.1408 0.31236,-3.16445 q 0.0944,-0.95653 1.33551,-0.83403 1.22395,0.12082 1.13021,1.0705 l -0.31236,3.16444 q -0.0423,0.42855 -0.40816,0.62785 -0.36208,0.1962 -0.91063,0.14205 -1.23424,-0.12183 -1.14693,-1.00636 z m 1.40401,0.19051 0.33063,-3.34958 q 0.0146,-0.14742 -0.16029,-0.16468 -0.18171,-0.0179 -0.19626,0.12949 l -0.33064,3.34958 q -0.0145,0.14742 0.16716,0.16535 0.17485,0.0173 0.1894,-0.13016 z m 0.99261,-4.93553 -0.47059,0.59399 -0.53827,-0.0531 0.27175,-0.61362 z"
         style="font-style:normal;font-variant:normal;font-weight:normal;font-stretch:normal;font-size:7.05555534px;line-height:1.25;font-family:Haettenschweiler;-inkscape-font-specification:Haettenschweiler;letter-spacing:0.64293748px;word-spacing:0px;fill:#333333;fill-opacity:1;stroke:none;stroke-width:0.49001387"
         id="path4575"
         inkscape:connector-curvature="0" />
      <path
         d="m 50.256661,227.75941 -0.51229,-0.0904 -0.0918,-0.29257 q -0.40794,0.24983 -0.80148,0.18036 -0.38337,-0.0677 -0.63701,-0.31536 -0.24964,-0.25048 -0.17298,-0.68473 l 0.5606,-3.17551 q 0.1671,-0.94654 1.37488,-0.73333 1.14671,0.20244 0.99458,1.06417 l -0.15932,0.90244 -0.9669,-0.17069 0.17369,-0.98387 q 0.021,-0.11874 -0.13849,-0.14689 -0.15945,-0.0282 -0.18042,0.0906 l -0.59593,3.37567 q -0.021,0.11874 0.13849,0.14689 0.15946,0.0281 0.18042,-0.0906 l 0.16051,-0.90922 -0.22052,-0.0389 0.13176,-0.74638 1.18743,0.20962 z"
         style="font-style:normal;font-variant:normal;font-weight:normal;font-stretch:normal;font-size:7.05555534px;line-height:1.25;font-family:Haettenschweiler;-inkscape-font-specification:Haettenschweiler;letter-spacing:0.64293748px;word-spacing:0px;fill:#333333;fill-opacity:1;stroke:none;stroke-width:0.49001387"
         id="path4577"
         inkscape:connector-curvature="0" />
      <path
         d="m 52.150581,228.20566 -1.05542,-0.2525 1.14946,-4.80468 1.05542,0.25249 z"
         style="font-style:normal;font-variant:normal;font-weight:normal;font-stretch:normal;font-size:7.05555534px;line-height:1.25;font-family:Haettenschweiler;-inkscape-font-specification:Haettenschweiler;letter-spacing:0.64293748px;word-spacing:0px;fill:#333333;fill-opacity:1;stroke:none;stroke-width:0.49001387"
         id="path4579"
         inkscape:connector-curvature="0" />
      <path
         d="m 56.217801,226.03298 -0.9461,-0.28725 0.28424,-0.93621 q 0.035,-0.11537 -0.10672,-0.15841 -0.14835,-0.045 -0.18338,0.0703 l -0.99584,3.28003 q -0.035,0.11538 0.11332,0.16042 0.14175,0.043 0.17678,-0.0723 l 0.3543,-1.16697 0.9461,0.28724 -0.36431,1.19993 q -0.10209,0.33625 -0.49379,0.44055 -0.3907,0.101 -0.80607,-0.0251 -1.19993,-0.36431 -0.94171,-1.21481 l 0.92378,-3.04268 q 0.27924,-0.91973 1.47917,-0.55542 1.07466,0.32627 0.82045,1.16359 z"
         style="font-style:normal;font-variant:normal;font-weight:normal;font-stretch:normal;font-size:7.05555534px;line-height:1.25;font-family:Haettenschweiler;-inkscape-font-specification:Haettenschweiler;letter-spacing:0.64293748px;word-spacing:0px;fill:#333333;fill-opacity:1;stroke:none;stroke-width:0.49001387"
         id="path4581"
         inkscape:connector-curvature="0" />
      <path
         d="m 56.420381,228.60671 1.15158,-2.96397 q 0.3481,-0.89594 1.51057,-0.44428 1.14641,0.44541 0.80081,1.33492 l -1.15159,2.96397 q -0.15595,0.40141 -0.56192,0.495 -0.4015,0.0917 -0.9153,-0.10799 -1.15605,-0.44915 -0.83415,-1.27765 z m 1.3011,0.56095 1.21896,-3.13737 q 0.0537,-0.13809 -0.11013,-0.20172 -0.17019,-0.0661 -0.22384,0.072 l -1.21896,3.13738 q -0.0537,0.13808 0.11655,0.20421 0.16377,0.0636 0.21742,-0.0745 z"
         style="font-style:normal;font-variant:normal;font-weight:normal;font-stretch:normal;font-size:7.05555534px;line-height:1.25;font-family:Haettenschweiler;-inkscape-font-specification:Haettenschweiler;letter-spacing:0.64293748px;word-spacing:0px;fill:#333333;fill-opacity:1;stroke:none;stroke-width:0.49001387"
         id="path4583"
         inkscape:connector-curvature="0" />
      <path
         d="m 61.297121,229.42072 0.87857,0.45357 -0.51995,1.00714 q -0.0774,0.15 0.10317,0.24325 0.17449,0.0901 0.25193,-0.0599 l 0.26867,-0.52041 q 0.12327,-0.23878 -0.0292,-0.72456 -0.30712,-0.9146 -0.35124,-1.19714 -0.0441,-0.28254 0.0823,-0.52744 l 0.25445,-0.49285 q 0.44093,-0.85408 1.55521,-0.27882 0.99795,0.51521 0.59653,1.29276 l -0.39193,0.75918 -0.87857,-0.45357 0.41722,-0.80816 q 0.068,-0.13164 -0.0759,-0.20591 -0.16836,-0.0869 -0.29954,0.16715 l -0.12861,0.29418 q -0.12643,0.2449 0.0305,0.73691 0.30436,0.8899 0.34808,1.20326 0.0468,0.31493 -0.10337,0.60574 l -0.28921,0.56021 q -0.45199,0.8755 -1.56934,0.29866 -1.07754,-0.5563 -0.66664,-1.35222 z"
         style="font-style:normal;font-variant:normal;font-weight:normal;font-stretch:normal;font-size:7.05555534px;line-height:1.25;font-family:Haettenschweiler;-inkscape-font-specification:Haettenschweiler;letter-spacing:0.63235414px;word-spacing:0px;fill:#333333;fill-opacity:1;stroke:none;stroke-width:0.49001387"
         id="path4589"
         inkscape:connector-curvature="0" />
      <path
         d="m 65.931471,228.53104 0.92319,0.57044 -2.18033,3.52863 q -0.0779,0.12602 0.0775,0.222 0.1524,0.0942 0.23026,-0.0319 l 2.18033,-3.52863 0.92318,0.57043 -2.14953,3.47881 q -0.22455,0.36341 -0.64956,0.37618 -0.42501,0.0128 -0.89686,-0.27879 -0.43669,-0.26982 -0.6486,-0.64779 -0.20899,-0.37617 0.0373,-0.77475 z"
         style="font-style:normal;font-variant:normal;font-weight:normal;font-stretch:normal;font-size:7.05555534px;line-height:1.25;font-family:Haettenschweiler;-inkscape-font-specification:Haettenschweiler;letter-spacing:0.63235414px;word-spacing:0px;fill:#333333;fill-opacity:1;stroke:none;stroke-width:0.49001387"
         id="path4591"
         inkscape:connector-curvature="0" />
      <path
         d="m 68.131751,233.70343 -1.07285,1.46895 -0.8541,-0.6238 2.91376,-3.98952 0.92087,0.67256 q 0.54807,0.40029 0.71077,0.73243 0.16549,0.33416 -0.14743,0.76261 l -0.8087,1.10727 q -0.2865,0.39227 -0.62338,0.39793 -0.33485,0.003 -1.03894,-0.52843 z m 0.86308,-0.56841 0.69898,-0.95704 q 0.15443,-0.21144 -0.13769,-0.42479 l -1.00783,1.37991 q 0.29212,0.21335 0.44654,0.002 z"
         style="font-style:normal;font-variant:normal;font-weight:normal;font-stretch:normal;font-size:7.05555534px;line-height:1.25;font-family:Haettenschweiler;-inkscape-font-specification:Haettenschweiler;letter-spacing:0.63235414px;word-spacing:0px;fill:#333333;fill-opacity:1;stroke:none;stroke-width:0.49001387"
         id="path4593"
         inkscape:connector-curvature="0" />
      <path
         d="m 70.470411,237.90167 -1.61866,-1.37243 3.1949,-3.76813 1.60816,1.36351 -0.41218,0.48613 -0.78043,-0.66171 -0.86222,1.01693 0.70423,0.59709 -0.38767,0.45722 -0.70423,-0.59709 -1.12289,1.32436 0.79094,0.67062 z"
         style="font-style:normal;font-variant:normal;font-weight:normal;font-stretch:normal;font-size:7.05555534px;line-height:1.25;font-family:Haettenschweiler;-inkscape-font-specification:Haettenschweiler;letter-spacing:0.63235414px;word-spacing:0px;fill:#333333;fill-opacity:1;stroke:none;stroke-width:0.49001387"
         id="path4595"
         inkscape:connector-curvature="0" />
      <path
         d="m 72.980281,240.32954 -0.77332,-0.76134 q 0.0222,-0.27302 0.71106,-0.9727 l 0.005,-0.005 0.21277,-0.20629 q 0.44,-0.4322 0.44966,-0.44202 0.17644,-0.17921 -0.0642,-0.41607 l -1.66286,1.68904 -0.77333,-0.76135 3.46592,-3.52046 0.95499,0.9402 q 0.32652,0.32145 0.41967,0.70807 0.0956,0.38903 -0.22343,0.71309 l -0.41571,0.42226 q -0.40364,0.40998 -1.02496,0.0835 0.37,0.58665 -0.0916,1.05556 l -0.39174,0.37335 q -0.83143,0.84452 -0.79777,1.10005 z m 1.38569,-3.18022 0.5704,-0.57938 q 0.18127,-0.18412 -0.0593,-0.42098 l -0.93536,0.95008 q 0.24059,0.23686 0.42428,0.0503 z"
         style="font-style:normal;font-variant:normal;font-weight:normal;font-stretch:normal;font-size:7.05555534px;line-height:1.25;font-family:Haettenschweiler;-inkscape-font-specification:Haettenschweiler;letter-spacing:0.63235414px;word-spacing:0px;fill:#333333;fill-opacity:1;stroke:none;stroke-width:0.49001387"
         id="path4597"
         inkscape:connector-curvature="0" />
      <path
         d="m 74.212661,241.69871 -0.72405,-0.80834 3.67987,-3.29617 0.72406,0.80834 z"
         style="font-style:normal;font-variant:normal;font-weight:normal;font-stretch:normal;font-size:7.05555534px;line-height:1.25;font-family:Haettenschweiler;-inkscape-font-specification:Haettenschweiler;letter-spacing:0.63235414px;word-spacing:0px;fill:#333333;fill-opacity:1;stroke:none;stroke-width:0.49001387"
         id="path4599"
         inkscape:connector-curvature="0" />
      <path
         d="m 75.449681,241.82434 2.49387,-1.97278 q 0.75384,-0.59632 1.52756,0.38177 0.76304,0.96459 0.0146,1.55664 l -2.49387,1.97278 q -0.33774,0.26717 -0.73521,0.14231 -0.39263,-0.12428 -0.7346,-0.55659 -0.76945,-0.97269 -0.0724,-1.52413 z m 0.83792,1.14255 2.63978,-2.0882 q 0.11618,-0.0919 0.007,-0.2297 -0.11328,-0.1432 -0.22946,-0.0513 l -2.63978,2.0882 q -0.11619,0.0919 -0.003,0.2351 0.10901,0.1378 0.22519,0.0459 z"
         style="font-style:normal;font-variant:normal;font-weight:normal;font-stretch:normal;font-size:7.05555534px;line-height:1.25;font-family:Haettenschweiler;-inkscape-font-specification:Haettenschweiler;letter-spacing:0.63235414px;word-spacing:0px;fill:#333333;fill-opacity:1;stroke:none;stroke-width:0.49001387"
         id="path4601"
         inkscape:connector-curvature="0" />
      <path
         d="m 78.324351,247.22051 -0.60441,-0.90132 q 0.0767,-0.26297 0.89216,-0.80981 l 0.006,-0.004 0.24991,-0.15929 q 0.51793,-0.33487 0.52938,-0.34254 0.20887,-0.14007 0.0208,-0.42048 l -1.96859,1.32009 -0.6044,-0.90131 4.10313,-2.75147 0.74638,1.11305 q 0.2552,0.38056 0.26869,0.77801 0.0154,0.40031 -0.36228,0.65359 l -0.49214,0.33002 q -0.47784,0.32043 -1.02082,-0.12432 0.24446,0.64908 -0.30206,1.01556 l -0.45882,0.28693 q -0.98429,0.66005 -1.0027,0.91713 z m 1.99697,-2.83655 0.67527,-0.45282 q 0.2146,-0.14391 0.0266,-0.42431 l -1.10733,0.74255 q 0.18804,0.2804 0.4055,0.13458 z"
         style="font-style:normal;font-variant:normal;font-weight:normal;font-stretch:normal;font-size:7.05555534px;line-height:1.25;font-family:Haettenschweiler;-inkscape-font-specification:Haettenschweiler;letter-spacing:0.63235414px;word-spacing:0px;fill:#333333;fill-opacity:1;stroke:none;stroke-width:0.49001387"
         id="path4603"
         inkscape:connector-curvature="0" />
      <path
         d="m 20.147176,243.00764 -2.918135,-3.98632 1.089704,-0.7977 q 0.355822,-0.26048 0.776255,-0.26938 0.418399,-0.0117 0.711433,0.38861 l 1.766347,2.41292 q 0.272685,0.3725 0.164,0.77228 -0.107939,0.39496 -0.49434,0.67782 z m 0.591193,-1.54285 -1.859955,-2.54079 q -0.152622,-0.20849 -0.39725,-0.0294 l 2.167235,2.96055 q 0.244627,-0.17908 0.08997,-0.39035 z"
         style="font-style:normal;font-variant:normal;font-weight:normal;font-stretch:normal;font-size:7.05555534px;line-height:1.25;font-family:Haettenschweiler;-inkscape-font-specification:Haettenschweiler;letter-spacing:0.44979167px;word-spacing:0px;fill:#333333;fill-opacity:1;stroke:none;stroke-width:0.49001387"
         id="path4609"
         inkscape:connector-curvature="0" />
      <path
         d="m 24.535128,240.06403 -1.812194,1.10435 -2.570846,-4.21864 1.800427,-1.09718 0.331664,0.54424 -0.873737,0.53246 0.693806,1.1385 0.788422,-0.48046 0.311944,0.51188 -0.788422,0.48047 0.903561,1.4827 0.885504,-0.53962 z"
         style="font-style:normal;font-variant:normal;font-weight:normal;font-stretch:normal;font-size:7.05555534px;line-height:1.25;font-family:Haettenschweiler;-inkscape-font-specification:Haettenschweiler;letter-spacing:0.44979167px;word-spacing:0px;fill:#333333;fill-opacity:1;stroke:none;stroke-width:0.49001387"
         id="path4611"
         inkscape:connector-curvature="0" />
      <path
         d="m 27.143964,235.22893 -0.901478,0.40614 -0.401893,-0.89205 q -0.04953,-0.10994 -0.184593,-0.0491 -0.141347,0.0637 -0.09182,0.17361 l 1.408037,3.12534 q 0.04953,0.10994 0.190876,0.0463 0.135065,-0.0609 0.08554,-0.17079 l -0.50095,-1.11193 0.901479,-0.40613 0.515101,1.14333 q 0.144341,0.32039 -0.08203,0.65665 -0.227782,0.33311 -0.623553,0.51141 -1.143339,0.51511 -1.508438,-0.29528 l -1.306149,-2.89918 q -0.394817,-0.87635 0.748522,-1.39145 1.023979,-0.46133 1.383418,0.33649 z"
         style="font-style:normal;font-variant:normal;font-weight:normal;font-stretch:normal;font-size:7.05555534px;line-height:1.25;font-family:Haettenschweiler;-inkscape-font-specification:Haettenschweiler;letter-spacing:0.43656251px;word-spacing:0px;fill:#333333;fill-opacity:1;stroke:none;stroke-width:0.49001387"
         id="path4617"
         inkscape:connector-curvature="0" />
      <path
         d="m 28.810632,237.11095 -1.043934,-3.00357 q -0.315556,-0.90791 0.862445,-1.31734 1.161731,-0.40378 1.475024,0.49762 l 1.043935,3.00358 q 0.141378,0.40677 -0.107128,0.74115 -0.246381,0.33 -0.767045,0.51097 -1.171493,0.40716 -1.463297,-0.43241 z m 1.35442,-0.41604 -1.10501,-3.1793 q -0.04863,-0.13992 -0.214595,-0.0823 -0.17247,0.0599 -0.123836,0.19988 l 1.10501,3.1793 q 0.04863,0.13993 0.221103,0.08 0.165962,-0.0577 0.117328,-0.19761 z"
         style="font-style:normal;font-variant:normal;font-weight:normal;font-stretch:normal;font-size:7.05555534px;line-height:1.25;font-family:Haettenschweiler;-inkscape-font-specification:Haettenschweiler;letter-spacing:0.43656251px;word-spacing:0px;fill:#333333;fill-opacity:1;stroke:none;stroke-width:0.49001387"
         id="path4619"
         inkscape:connector-curvature="0" />
      <path
         d="m 31.591581,234.98518 0.959543,-0.23851 0.273416,1.09997 q 0.04072,0.16382 0.237979,0.11479 0.190572,-0.0474 0.14985,-0.2112 l -0.141278,-0.56837 q -0.06482,-0.26078 -0.499792,-0.5254 -0.834069,-0.48492 -1.053574,-0.6682 -0.219505,-0.18328 -0.285989,-0.45075 l -0.133799,-0.53828 q -0.231863,-0.9328 0.98512,-1.2353 1.089934,-0.27092 1.301021,0.57829 l 0.2061,0.82915 -0.959544,0.23851 -0.219397,-0.88264 q -0.03574,-0.14377 -0.192873,-0.10471 -0.183884,0.0457 -0.114907,0.32321 l 0.09735,0.30595 q 0.06648,0.26746 0.508971,0.53377 0.81571,0.46818 1.055236,0.67488 0.24287,0.20588 0.32182,0.5235 l 0.152082,0.61183 q 0.23768,0.9562 -0.982645,1.25953 -1.176862,0.29253 -1.392935,-0.57674 z"
         style="font-style:normal;font-variant:normal;font-weight:normal;font-stretch:normal;font-size:7.05555534px;line-height:1.25;font-family:Haettenschweiler;-inkscape-font-specification:Haettenschweiler;letter-spacing:0.43656251px;word-spacing:0px;fill:#333333;fill-opacity:1;stroke:none;stroke-width:0.49001387"
         id="path4621"
         inkscape:connector-curvature="0" />
      <path
         d="m 38.024169,235.74064 -1.063347,0.15697 -0.374322,-1.28548 -0.480551,0.0709 0.01306,1.3388 -1.063347,0.15697 0.0829,-5.00604 1.359858,-0.20073 z m -1.626396,-1.79366 -0.368689,-1.43605 0.06877,1.48032 z"
         style="font-style:normal;font-variant:normal;font-weight:normal;font-stretch:normal;font-size:7.05555534px;line-height:1.25;font-family:Haettenschweiler;-inkscape-font-specification:Haettenschweiler;letter-spacing:0.43656251px;word-spacing:0px;fill:#333333;fill-opacity:1;stroke:none;stroke-width:0.49001387"
         id="path4623"
         inkscape:connector-curvature="0" />
      <path
         d="m 42.406271,235.54994 -0.96763,0.0293 -0.0841,-2.77203 -0.48068,2.78915 -0.74724,0.0227 -0.73144,-2.75239 0.0841,2.77202 -0.847102,0.0257 -0.149742,-4.93799 1.394624,-0.0423 0.57355,2.54693 0.35275,-2.57502 1.45317,-0.0441 z"
         style="font-style:normal;font-variant:normal;font-weight:normal;font-stretch:normal;font-size:7.05555534px;line-height:1.25;font-family:Haettenschweiler;-inkscape-font-specification:Haettenschweiler;letter-spacing:0.43656251px;word-spacing:0px;fill:#333333;fill-opacity:1;stroke:none;stroke-width:0.49001387"
         id="path4625"
         inkscape:connector-curvature="0" />
      <path
         d="m 46.010811,235.84583 -1.07095,-0.0918 -0.0687,-1.33711 -0.48398,-0.0415 -0.29514,1.30594 -1.07095,-0.0918 1.23178,-4.85283 1.36957,0.11733 z m -1.17038,-2.11957 -0.0286,-1.48236 -0.27346,1.45648 z"
         style="font-style:normal;font-variant:normal;font-weight:normal;font-stretch:normal;font-size:7.05555534px;line-height:1.25;font-family:Haettenschweiler;-inkscape-font-specification:Haettenschweiler;letter-spacing:0.43656251px;word-spacing:0px;fill:#333333;fill-opacity:1;stroke:none;stroke-width:0.49001387"
         id="path4627"
         inkscape:connector-curvature="0" />
      <path
         d="m 48.624841,236.3031 -2.00506,-0.35392 0.85876,-4.86506 1.06868,0.18864 -0.74856,4.24081 0.93637,0.16528 z"
         style="font-style:normal;font-variant:normal;font-weight:normal;font-stretch:normal;font-size:7.05555534px;line-height:1.25;font-family:Haettenschweiler;-inkscape-font-specification:Haettenschweiler;letter-spacing:0.43656251px;word-spacing:0px;fill:#333333;fill-opacity:1;stroke:none;stroke-width:0.49001387"
         id="path4629"
         inkscape:connector-curvature="0" />
      <path
         d="m 49.427461,235.60834 0.8112,-3.07461 q 0.2452,-0.92938 1.45106,-0.61123 1.18921,0.31375 0.94576,1.23647 l -0.81119,3.07461 q -0.10986,0.41639 -0.50273,0.55502 -0.38867,0.13618 -0.92164,-0.004 -1.1992,-0.31639 -0.97246,-1.17582 z m 1.35591,0.41118 0.85865,-3.25449 q 0.0378,-0.14324 -0.1321,-0.18806 -0.17655,-0.0466 -0.21434,0.0967 l -0.85865,3.25449 q -0.0378,0.14324 0.13876,0.18982 0.16989,0.0448 0.20768,-0.0984 z"
         style="font-style:normal;font-variant:normal;font-weight:normal;font-stretch:normal;font-size:7.05555534px;line-height:1.25;font-family:Haettenschweiler;-inkscape-font-specification:Haettenschweiler;letter-spacing:0.43656251px;word-spacing:0px;fill:#333333;fill-opacity:1;stroke:none;stroke-width:0.49001387"
         id="path4631"
         inkscape:connector-curvature="0" />
      <path
         d="m 55.001681,238.26571 -1.00832,-0.37234 0.28818,-1.30749 -0.45568,-0.16827 -0.63075,1.18098 -1.00832,-0.37235 2.47407,-4.35273 1.28948,0.47618 z m -0.56667,-2.35399 0.36535,-1.4369 -0.64975,1.33188 z"
         style="font-style:normal;font-variant:normal;font-weight:normal;font-stretch:normal;font-size:7.05555534px;line-height:1.25;font-family:Haettenschweiler;-inkscape-font-specification:Haettenschweiler;letter-spacing:0.43656251px;word-spacing:0px;fill:#333333;fill-opacity:1;stroke:none;stroke-width:0.49001387"
         id="path4633"
         inkscape:connector-curvature="0" />
      <path
         d="m 57.297961,237.33623 -0.7899,1.63855 -0.95272,-0.45927 2.14528,-4.45017 1.0272,0.49517 q 0.61135,0.29472 0.83137,0.592 0.22312,0.29879 -0.007,0.7767 l -0.59541,1.23512 q -0.21093,0.43757 -0.54126,0.50398 -0.32883,0.0633 -1.11729,-0.33208 z m 0.74622,-0.71496 0.51463,-1.06754 q 0.1137,-0.23586 -0.21215,-0.39294 l -0.74202,1.53925 q 0.32585,0.15708 0.43954,-0.0788 z"
         style="font-style:normal;font-variant:normal;font-weight:normal;font-stretch:normal;font-size:7.05555534px;line-height:1.25;font-family:Haettenschweiler;-inkscape-font-specification:Haettenschweiler;letter-spacing:0.43656251px;word-spacing:0px;fill:#333333;fill-opacity:1;stroke:none;stroke-width:0.49001387"
         id="path4635"
         inkscape:connector-curvature="0" />
      <path
         d="m 60.855711,241.40631 -0.9192,-0.55716 0.53137,-1.22891 -0.4154,-0.25179 -0.84367,1.03962 -0.91919,-0.55716 3.25606,-3.80333 1.17551,0.71252 z m -0.10906,-2.41878 0.63172,-1.34131 -0.89098,1.18416 z"
         style="font-style:normal;font-variant:normal;font-weight:normal;font-stretch:normal;font-size:7.05555534px;line-height:1.25;font-family:Haettenschweiler;-inkscape-font-specification:Haettenschweiler;letter-spacing:0.43656251px;word-spacing:0px;fill:#333333;fill-opacity:1;stroke:none;stroke-width:0.49001387"
         id="path4637"
         inkscape:connector-curvature="0" />
      <path
         d="m 63.559231,243.41272 -0.89142,-0.67178 0.9953,-2.54571 -1.58408,2.102 -0.72359,-0.54531 2.97327,-3.94537 0.98496,0.74229 -0.86077,2.17256 1.35601,-1.79935 0.72359,0.54531 z"
         style="font-style:normal;font-variant:normal;font-weight:normal;font-stretch:normal;font-size:7.05555534px;line-height:1.25;font-family:Haettenschweiler;-inkscape-font-specification:Haettenschweiler;letter-spacing:0.43656251px;word-spacing:0px;fill:#333333;fill-opacity:1;stroke:none;stroke-width:0.49001387"
         id="path4639"
         inkscape:connector-curvature="0" />
      <path
         inkscape:connector-curvature="0"
         id="path4529"
         d="m 38.974761,239.61863 -0.528651,0.0207 -5.602758,0.21963 0.183967,4.70462 c -1.467448,0.48786 -2.888954,1.09985 -4.252452,1.82934 l -3.04891,-3.68039 -4.72581,3.91501 2.708362,3.26956 c -1.182124,1.03377 -2.272093,2.16558 -3.258714,3.38739 l -3.390493,-2.16472 -3.302124,5.17177 3.396692,2.16835 c -0.798984,1.6405 -1.432195,3.35411 -1.887739,5.12113 l -4.167187,-0.16898 -0.248566,6.13193 3.526917,0.14262 c -0.0084,0.2237 -0.02085,0.44742 -0.02376,0.67128 v 0.005 0.005 c 0.0104,1.78253 0.218096,3.5555 0.575675,5.30097 l -3.405476,0.88109 1.537891,5.94123 1.440738,-0.3731 c 0,0 0,0 0,0 l 2.291334,-0.59324 c 0.356822,0.79349 0.760624,1.55534 1.185455,2.30166 0.277288,0.0759 0.552286,0.17781 0.830442,0.22841 0.178491,0.0325 0.353259,0.0246 0.531233,0.0465 -0.66603,-1.08044 -1.259332,-2.21752 -1.770435,-3.40702 l -0.179316,-0.41755 -3.569809,0.92449 -1.007689,-3.89175 3.346047,-0.8661 -0.112138,-0.49971 c -0.41134,-1.83123 -0.624411,-3.70164 -0.635619,-5.57847 0.0051,-0.38551 0.01865,-0.77058 0.04082,-1.15548 l 0.031,-0.53744 -3.5326,-0.14314 0.162782,-4.01629 3.951695,0.15968 0.101804,-0.4222 c 0.47983,-1.99429 1.192032,-3.92531 2.122868,-5.75314 l 0.218072,-0.42788 -3.28972,-2.10013 2.163175,-3.38791 3.289205,2.10013 0.296105,-0.38034 c 1.126903,-1.44762 2.40292,-2.77255 3.807003,-3.95324 l 0.402045,-0.33797 -2.685624,-3.24269 3.095934,-2.56419 2.919717,3.52485 0.384474,-0.21342 c 1.538996,-0.85604 3.16018,-1.55484 4.839496,-2.08514 l 0.385509,-0.12144 -0.173633,-4.43281 4.016809,-0.15761 0.145727,3.73155 0.568957,-0.0677 c 0.963293,-0.11436 1.932109,-0.17463 2.902149,-0.18139 1.050448,0.011 2.099363,0.0846 3.140892,0.2217 l 0.575159,0.076 0.147794,-3.78013 4.016809,0.15761 -0.176731,4.51239 0.377753,0.12557 c 1.64841,0.54683 3.238154,1.25637 4.745964,2.11822 l 0.386022,0.22066 3.022555,-3.64888 3.095934,2.56419 -2.79931,3.37964 0.39429,0.33899 c 1.374899,1.18068 2.623325,2.50109 3.725354,3.93982 l 0.29559,0.3855 3.49281,-2.22984 2.163175,3.38791 -3.501078,2.23501 0.214455,0.42684 c 0.900851,1.7916 1.59258,3.68102 2.06189,5.63067 l 0.101804,0.42219 4.227648,-0.17104 0.162782,4.01629 -3.810622,0.15451 0.04238,0.54725 c 0.0293,0.37827 0.05024,0.75719 0.06305,1.13637 -0.01109,1.85598 -0.219247,3.70562 -0.621668,5.51749 l -0.110588,0.49868 3.574976,0.92604 -1.007173,3.89175 -3.790466,-0.98133 -0.1788,0.41858 c -0.530781,1.24323 -1.154118,2.4273 -1.853634,3.55172 0.391231,-5.3e-4 0.781709,-0.004 1.167371,-0.0527 0.02765,-0.004 0.05454,-0.0158 0.08217,-0.0196 0.500713,-0.85475 0.972092,-1.73157 1.382345,-2.64945 l 2.345076,0.6072 c 0,0 0,0 0,0 l 1.605587,0.41548 1.537372,-5.94124 -3.636471,-0.94102 c 0.349412,-1.72625 0.552646,-3.479 0.562759,-5.24103 v -0.0104 l -5.3e-4,-0.0103 c -0.007,-0.21694 -0.02315,-0.43341 -0.03566,-0.65009 l 3.78323,-0.15296 -0.248563,-6.13193 -4.442106,0.18038 c -0.444079,-1.72186 -1.05673,-3.39306 -1.827278,-4.99556 l 3.611149,-2.30529 -3.302124,-5.17177 -3.587379,2.28978 c -0.96316,-1.21168 -2.027513,-2.33654 -3.182234,-3.36724 l 2.828769,-3.41478 -4.72581,-3.915 -3.145028,3.79666 c -1.33313,-0.73304 -2.723193,-1.3542 -4.159954,-1.85466 l 0.187587,-4.79558 -6.131409,-0.24029 -0.145212,3.71295 c -0.8959,-0.0986 -1.793933,-0.1814 -2.695442,-0.19069 h -0.0052 -0.0047 c -0.820568,0.006 -1.638626,0.0739 -2.455146,0.15348 z"
         style="color:#000000;font-style:normal;font-variant:normal;font-weight:normal;font-stretch:normal;font-size:medium;line-height:normal;font-family:sans-serif;font-variant-ligatures:normal;font-variant-position:normal;font-variant-caps:normal;font-variant-numeric:normal;font-variant-alternates:normal;font-feature-settings:normal;text-indent:0;text-align:start;text-decoration:none;text-decoration-line:none;text-decoration-style:solid;text-decoration-color:#000000;letter-spacing:normal;word-spacing:normal;text-transform:none;writing-mode:lr-tb;direction:ltr;text-orientation:mixed;dominant-baseline:auto;baseline-shift:baseline;text-anchor:start;white-space:normal;shape-padding:0;clip-rule:nonzero;display:inline;overflow:visible;visibility:visible;opacity:1;isolation:auto;mix-blend-mode:normal;color-interpolation:sRGB;color-interpolation-filters:linearRGB;solid-color:#000000;solid-opacity:1;vector-effect:none;fill:#333333;fill-opacity:1;fill-rule:nonzero;stroke:none;stroke-width:1.96005547;stroke-linecap:round;stroke-linejoin:miter;stroke-miterlimit:4;stroke-dasharray:none;stroke-dashoffset:0;stroke-opacity:1;color-rendering:auto;image-rendering:auto;shape-rendering:auto;text-rendering:auto;enable-background:accumulate" />
      <path
         id="path4662"
         d="m 29.451311,304.59709 -0.668176,12.89534 h 25.791706 l -0.66817,-12.89534 h -0.48628 l 0.44855,12.03027 c -3.8637,-1.31318 -7.96492,-1.05306 -11.95379,-0.61391 l -0.22531,-11.41636 h -0.0217 l -0.22531,11.41636 c -3.988863,-0.43915 -8.089572,-0.69927 -11.953271,0.61391 l 0.44855,-12.03027 z"
         style="fill:#333333;stroke:none;stroke-width:0.49001387px;stroke-linecap:butt;stroke-linejoin:miter;stroke-opacity:1"
         inkscape:connector-curvature="0" />
      <path
         inkscape:connector-curvature="0"
         id="path4664"
         d="m 36.537109,303.18164 c -1.94302,-0.063 -4.123819,0.10842 -6.603515,0.6543 l -0.09961,0.0215 -0.484375,12.95703 0.181641,-0.0625 c 3.831663,-1.30229 7.911776,-1.04611 11.896484,-0.60742 l 0.144532,0.0156 0.002,-0.14454 0.238281,-12.05859 -0.101562,-0.0254 c -1.52663,-0.38945 -3.230808,-0.68701 -5.173829,-0.75 z m -0.0078,0.26367 c 1.882998,0.061 3.526765,0.3521 5.015625,0.72657 L 41.3125,315.875 c -3.887646,-0.4234 -7.888908,-0.6576 -11.685547,0.58398 l 0.462891,-12.375 c 2.41276,-0.522 4.547538,-0.7 6.439453,-0.63867 z"
         style="color:#000000;font-style:normal;font-variant:normal;font-weight:normal;font-stretch:normal;font-size:medium;line-height:normal;font-family:sans-serif;font-variant-ligatures:normal;font-variant-position:normal;font-variant-caps:normal;font-variant-numeric:normal;font-variant-alternates:normal;font-feature-settings:normal;text-indent:0;text-align:start;text-decoration:none;text-decoration-line:none;text-decoration-style:solid;text-decoration-color:#000000;letter-spacing:normal;word-spacing:normal;text-transform:none;writing-mode:lr-tb;direction:ltr;text-orientation:mixed;dominant-baseline:auto;baseline-shift:baseline;text-anchor:start;white-space:normal;shape-padding:0;clip-rule:nonzero;display:inline;overflow:visible;visibility:visible;opacity:1;isolation:auto;mix-blend-mode:normal;color-interpolation:sRGB;color-interpolation-filters:linearRGB;solid-color:#000000;solid-opacity:1;vector-effect:none;fill:#333333;fill-opacity:1;fill-rule:nonzero;stroke:none;stroke-width:0.49001387px;stroke-linecap:butt;stroke-linejoin:miter;stroke-miterlimit:4;stroke-dasharray:none;stroke-dashoffset:0;stroke-opacity:1;color-rendering:auto;image-rendering:auto;shape-rendering:auto;text-rendering:auto;enable-background:accumulate" />
      <path
         inkscape:connector-curvature="0"
         id="path4666"
         d="m 46.820312,303.18164 c -1.94302,0.063 -3.647201,0.36055 -5.173828,0.75 l -0.101562,0.0254 0.240234,12.20313 0.144532,-0.0156 c 3.984708,-0.43869 8.064822,-0.69487 11.896484,0.60742 l 0.18164,0.0625 -0.482421,-12.95703 -0.09961,-0.0215 c -2.479692,-0.54588 -4.662448,-0.71729 -6.605469,-0.6543 z m 0.0098,0.26367 c 1.891906,-0.0613 4.024757,0.11667 6.4375,0.63867 l 0.462891,12.37305 c -3.79598,-1.24075 -7.79866,-1.00535 -11.685547,-0.58203 L 41.8125,304.17188 c 1.488866,-0.37448 3.134565,-0.66553 5.017578,-0.72657 z"
         style="color:#000000;font-style:normal;font-variant:normal;font-weight:normal;font-stretch:normal;font-size:medium;line-height:normal;font-family:sans-serif;font-variant-ligatures:normal;font-variant-position:normal;font-variant-caps:normal;font-variant-numeric:normal;font-variant-alternates:normal;font-feature-settings:normal;text-indent:0;text-align:start;text-decoration:none;text-decoration-line:none;text-decoration-style:solid;text-decoration-color:#000000;letter-spacing:normal;word-spacing:normal;text-transform:none;writing-mode:lr-tb;direction:ltr;text-orientation:mixed;dominant-baseline:auto;baseline-shift:baseline;text-anchor:start;white-space:normal;shape-padding:0;clip-rule:nonzero;display:inline;overflow:visible;visibility:visible;opacity:1;isolation:auto;mix-blend-mode:normal;color-interpolation:sRGB;color-interpolation-filters:linearRGB;solid-color:#000000;solid-opacity:1;vector-effect:none;fill:#333333;fill-opacity:1;fill-rule:nonzero;stroke:none;stroke-width:0.49001387px;stroke-linecap:butt;stroke-linejoin:miter;stroke-miterlimit:4;stroke-dasharray:none;stroke-dashoffset:0;stroke-opacity:1;color-rendering:auto;image-rendering:auto;shape-rendering:auto;text-rendering:auto;enable-background:accumulate" />
      <path
         inkscape:connector-curvature="0"
         id="path6452"
         style="font-style:normal;font-variant:normal;font-weight:normal;font-stretch:normal;font-size:7.05555534px;line-height:1.25;font-family:Haettenschweiler;-inkscape-font-specification:Haettenschweiler;letter-spacing:0.02645833px;word-spacing:0px;fill:#333333;fill-opacity:1;stroke:none;stroke-width:0.49001387"
         d="m 43.845261,311.24941 h 0.98874 v 1.13343 q 0,0.16881 0.20327,0.16881 0.19637,0 0.19637,-0.16881 v -0.58566 q 0,-0.26872 -0.35829,-0.63046 -0.69247,-0.67179 -0.86128,-0.90261 -0.16881,-0.23082 -0.16881,-0.50643 v -0.55466 q 0,-0.96118 1.25402,-0.96118 1.1231,0 1.1231,0.87505 v 0.85439 h -0.98874 v -0.90951 q 0,-0.14814 -0.16192,-0.14814 -0.18948,0 -0.18948,0.28594 l 0.0207,0.3204 q 0,0.27561 0.36518,0.64079 0.67868,0.65112 0.86127,0.9095 0.18604,0.25838 0.18604,0.58567 v 0.63045 q 0,0.9853 -1.25746,0.9853 -1.21268,0 -1.21268,-0.89573 z" />
      <path
         inkscape:connector-curvature="0"
         id="path6454"
         style="font-style:normal;font-variant:normal;font-weight:normal;font-stretch:normal;font-size:7.05555534px;line-height:1.25;font-family:Haettenschweiler;-inkscape-font-specification:Haettenschweiler;letter-spacing:0.02645833px;word-spacing:0px;fill:#333333;fill-opacity:1;stroke:none;stroke-width:0.49001387"
         d="m 48.698301,313.22689 h -2.12218 v -4.94027 h 2.1084 v 0.63735 h -1.02319 v 1.33325 h 0.92328 v 0.59945 h -0.92328 v 1.73632 h 1.03697 z" />
      <path
         inkscape:connector-curvature="0"
         id="path6456"
         style="font-style:normal;font-variant:normal;font-weight:normal;font-stretch:normal;font-size:7.05555534px;line-height:1.25;font-family:Haettenschweiler;-inkscape-font-specification:Haettenschweiler;letter-spacing:0.02645833px;word-spacing:0px;fill:#333333;fill-opacity:1;stroke:none;stroke-width:0.49001387"
         d="m 51.673761,308.28662 -0.6649,4.94027 h -1.53652 l -0.6649,-4.94027 h 1.05764 l 0.37552,3.45199 0.37207,-3.45199 z" />
      <path
         inkscape:connector-curvature="0"
         id="path6459"
         style="font-style:normal;font-variant:normal;font-weight:normal;font-stretch:normal;font-size:7.05555534px;line-height:1.25;font-family:Haettenschweiler;-inkscape-font-specification:Haettenschweiler;letter-spacing:0.02645833px;word-spacing:0px;fill:#333333;fill-opacity:1;stroke:none;stroke-width:0.49001387"
         d="m 31.684497,311.24941 h 0.988742 v 1.13343 q 0,0.16881 0.203261,0.16881 0.19637,0 0.19637,-0.16881 v -0.58566 q 0,-0.26872 -0.35829,-0.63046 -0.692464,-0.67179 -0.861274,-0.90261 -0.168809,-0.23082 -0.168809,-0.50643 v -0.55466 q 0,-0.96118 1.254015,-0.96118 1.123101,0 1.123101,0.87505 v 0.85439 H 33.07287 v -0.90951 q 0,-0.14814 -0.161919,-0.14814 -0.18948,0 -0.18948,0.28594 l 0.02067,0.3204 q 0,0.27561 0.36518,0.64079 0.678684,0.65112 0.861274,0.9095 0.186035,0.25838 0.186035,0.58567 v 0.63045 q 0,0.9853 -1.25746,0.9853 -1.212673,0 -1.212673,-0.89573 z" />
      <path
         inkscape:connector-curvature="0"
         id="path6461"
         style="font-style:normal;font-variant:normal;font-weight:normal;font-stretch:normal;font-size:7.05555534px;line-height:1.25;font-family:Haettenschweiler;-inkscape-font-specification:Haettenschweiler;letter-spacing:0.02645833px;word-spacing:0px;fill:#333333;fill-opacity:1;stroke:none;stroke-width:0.49001387"
         d="m 36.537534,313.22689 h -2.122179 v -4.94027 h 2.108398 v 0.63735 H 35.50056 v 1.33325 h 0.923285 v 0.59945 H 35.50056 v 1.73632 h 1.036974 z" />
      <path
         inkscape:connector-curvature="0"
         id="path6463"
         style="font-style:normal;font-variant:normal;font-weight:normal;font-stretch:normal;font-size:7.05555534px;line-height:1.25;font-family:Haettenschweiler;-inkscape-font-specification:Haettenschweiler;letter-spacing:0.02645833px;word-spacing:0px;fill:#333333;fill-opacity:1;stroke:none;stroke-width:0.49001387"
         d="m 37.800781,311.40788 v 1.81901 h -1.057644 v -4.94027 h 1.140326 q 0.678684,0 1.005968,0.17226 0.33073,0.17225 0.33073,0.7028 v 1.37115 q 0,0.48575 -0.26872,0.68902 -0.268716,0.19981 -1.15066,0.18603 z m 0.361735,-0.96807 v -1.18511 q 0,-0.26183 -0.361735,-0.26183 v 1.70877 q 0.361735,0 0.361735,-0.26183 z" />
      <path
         sodipodi:nodetypes="ccccc"
         inkscape:connector-curvature="0"
         id="path4693"
         d="m 20.801193,301.93379 c 3.126629,3.79673 11.969448,5.67562 12.175895,4.4522 0.247393,-1.406 -5.152825,-0.7494 -9.813544,-4.78293 -0.04346,-2.78929 -0.508246,-5.03751 -2.976563,-6.04762 1.09941,2.93795 -0.373093,4.75043 0.614212,6.37835 z"
         style="display:inline;opacity:1;fill:#333333;stroke:none;stroke-width:0.49001387px;stroke-linecap:butt;stroke-linejoin:miter;stroke-opacity:1" />
      <path
         sodipodi:nodetypes="ccc"
         inkscape:connector-curvature="0"
         id="path4701"
         d="m 19.856251,301.88655 c -4.704452,-4.87097 -5.09598,-0.25795 -8.764321,-1.34655 4.42307,5.46508 6.060615,1.07939 8.764321,1.34655 z"
         style="fill:#333333;fill-opacity:1;stroke:none;stroke-width:0.49001387px;stroke-linecap:butt;stroke-linejoin:miter;stroke-opacity:1" />
      <path
         style="fill:#333333;fill-opacity:1;stroke:none;stroke-width:0.49001387px;stroke-linecap:butt;stroke-linejoin:miter;stroke-opacity:1"
         d="m 18.591728,299.58046 c -5.409966,-4.07314 -0.879509,-5.02613 -2.408753,-8.53372 5.965186,3.72119 1.812799,5.88303 2.408753,8.53372 z"
         id="path4703"
         inkscape:connector-curvature="0"
         sodipodi:nodetypes="ccc" />
      <path
         style="fill:#333333;fill-opacity:1;stroke:none;stroke-width:0.49001387px;stroke-linecap:butt;stroke-linejoin:miter;stroke-opacity:1"
         d="m 14.988445,298.26477 c -3.558582,-5.76149 -4.924003,-1.33782 -8.276165,-3.18302 3.157076,6.282 5.691466,2.34592 8.276165,3.18302 z"
         id="path4705"
         inkscape:connector-curvature="0"
         sodipodi:nodetypes="ccc" />
      <path
         sodipodi:nodetypes="ccc"
         inkscape:connector-curvature="0"
         id="path4707"
         d="m 14.839822,296.23407 c -5.065809,-4.49397 -0.473508,-5.08047 -1.716466,-8.69943 5.647473,4.18769 1.335056,6.00948 1.716466,8.69943 z"
         style="fill:#333333;fill-opacity:1;stroke:none;stroke-width:0.49001387px;stroke-linecap:butt;stroke-linejoin:miter;stroke-opacity:1" />
      <path
         sodipodi:nodetypes="ccc"
         inkscape:connector-curvature="0"
         id="path4709"
         d="m 11.439686,293.5493 c -3.428406,-5.83989 -4.892745,-1.44797 -8.202658,-3.36792 3.015321,6.35125 5.637393,2.47303 8.202658,3.36792 z"
         style="fill:#333333;fill-opacity:1;stroke:none;stroke-width:0.49001387px;stroke-linecap:butt;stroke-linejoin:miter;stroke-opacity:1" />
      <path
         style="fill:#333333;fill-opacity:1;stroke:none;stroke-width:0.49001387px;stroke-linecap:butt;stroke-linejoin:miter;stroke-opacity:1"
         d="m 10.607212,291.32088 c -4.048475,-5.42845 0.567296,-5.07085 0.08458,-8.86675 4.680188,5.24658 0.08781,6.15537 -0.08458,8.86675 z"
         id="path4711"
         inkscape:connector-curvature="0"
         sodipodi:nodetypes="ccc" />
      <path
         sodipodi:nodetypes="ccc"
         inkscape:connector-curvature="0"
         id="path4713"
         d="m 8.115625,288.75194 c -2.154911,-6.41986 -4.49066,-2.42267 -7.335304,-4.98194 1.64555,6.83542 5.00875,3.57893 7.335304,4.98194 z"
         style="fill:#333333;fill-opacity:1;stroke:none;stroke-width:0.49001387px;stroke-linecap:butt;stroke-linejoin:miter;stroke-opacity:1" />
      <path
         style="fill:#333333;fill-opacity:1;stroke:none;stroke-width:0.49001387px;stroke-linecap:butt;stroke-linejoin:miter;stroke-opacity:1"
         d="m 7.602175,286.09201 c -3.348978,-5.8858 1.187597,-4.96235 1.176132,-8.78881 3.998282,5.78313 -0.671066,6.11932 -1.176132,8.78881 z"
         id="path4715"
         inkscape:connector-curvature="0"
         sodipodi:nodetypes="ccc" />
      <path
         sodipodi:nodetypes="ccc"
         inkscape:connector-curvature="0"
         id="path4717"
         d="m 4.988852,283.10835 c -0.78978,-6.72566 -3.897023,-3.29371 -6.155094,-6.38289 0.2059,7.02769 4.166477,4.53176 6.155094,6.38289 z"
         style="fill:#333333;fill-opacity:1;stroke:none;stroke-width:0.49001387px;stroke-linecap:butt;stroke-linejoin:miter;stroke-opacity:1" />
      <path
         style="fill:#333333;fill-opacity:1;stroke:none;stroke-width:0.49001387px;stroke-linecap:butt;stroke-linejoin:miter;stroke-opacity:1"
         d="m 3.567322,276.90194 c 0.546161,-6.74982 -3.174453,-3.99477 -4.782016,-7.46719 -1.177978,6.93132 3.195574,5.26163 4.782016,7.46719 z"
         id="path4719"
         inkscape:connector-curvature="0"
         sodipodi:nodetypes="ccc" />
      <path
         sodipodi:nodetypes="ccc"
         inkscape:connector-curvature="0"
         id="path4721"
         d="m 5.38844,279.83729 c -1.868933,-6.50887 2.322652,-4.54319 3.212496,-8.26476 2.524155,6.56196 -2.093067,5.78924 -3.212496,8.26476 z"
         style="fill:#333333;fill-opacity:1;stroke:none;stroke-width:0.49001387px;stroke-linecap:butt;stroke-linejoin:miter;stroke-opacity:1" />
      <path
         style="fill:#333333;fill-opacity:1;stroke:none;stroke-width:0.49001387px;stroke-linecap:butt;stroke-linejoin:miter;stroke-opacity:1"
         d="m 4.527707,273.12301 c -0.524634,-6.75152 3.187176,-3.98462 4.805803,-7.45189 1.15587,6.93503 -3.212334,5.2514 -4.805803,7.45189 z"
         id="path4723"
         inkscape:connector-curvature="0"
         sodipodi:nodetypes="ccc" />
      <path
         sodipodi:nodetypes="ccc"
         inkscape:connector-curvature="0"
         id="path4725"
         d="m 3.108335,270.04519 c 1.667854,-6.56328 -2.461288,-4.46961 -3.465177,-8.16205 -2.321132,6.6365 2.270139,5.72214 3.465177,8.16205 z"
         style="fill:#333333;fill-opacity:1;stroke:none;stroke-width:0.49001387px;stroke-linecap:butt;stroke-linejoin:miter;stroke-opacity:1" />
      <path
         style="fill:#333333;fill-opacity:1;stroke:none;stroke-width:0.49001387px;stroke-linecap:butt;stroke-linejoin:miter;stroke-opacity:1"
         d="m 3.972563,263.45466 c 2.593705,-6.25548 -1.793446,-4.77691 -2.256302,-8.57529 -3.250724,6.23407 1.42429,5.98898 2.256302,8.57529 z"
         id="path4727"
         inkscape:connector-curvature="0"
         sodipodi:nodetypes="ccc" />
      <path
         sodipodi:nodetypes="ccc"
         inkscape:connector-curvature="0"
         id="path4729"
         d="m 4.652367,266.93572 c 0.250931,-6.76722 3.621958,-3.59398 5.626492,-6.85339 0.355176,7.02171 -3.791823,4.84957 -5.626492,6.85339 z"
         style="fill:#333333;fill-opacity:1;stroke:none;stroke-width:0.49001387px;stroke-linecap:butt;stroke-linejoin:miter;stroke-opacity:1" />
      <path
         style="fill:#333333;fill-opacity:1;stroke:none;stroke-width:0.49001387px;stroke-linecap:butt;stroke-linejoin:miter;stroke-opacity:1"
         d="m 5.839896,260.80197 c 0.971052,-6.70189 3.984517,-3.1873 6.325156,-6.2144 -0.395534,7.01955 -4.28729,4.41762 -6.325156,6.2144 z"
         id="path4731"
         inkscape:connector-curvature="0"
         sodipodi:nodetypes="ccc" />
      <path
         sodipodi:nodetypes="ccc"
         inkscape:connector-curvature="0"
         id="path4733"
         d="m 5.959803,256.85286 c 3.537131,-5.77469 -1.026875,-4.99809 -0.891964,-8.82218 -4.18278,5.65112 0.47329,6.13779 0.891964,8.82218 z"
         style="fill:#333333;fill-opacity:1;stroke:none;stroke-width:0.49001387px;stroke-linecap:butt;stroke-linejoin:miter;stroke-opacity:1" />
      <path
         sodipodi:nodetypes="ccc"
         inkscape:connector-curvature="0"
         id="path4735"
         d="m 8.233485,254.49778 c 2.213813,0.29945 5.671476,-1.09884 5.764137,-5.33891 -2.837457,-0.12838 -5.861754,1.71428 -5.764137,5.33891 z"
         style="display:inline;opacity:1;fill:#333333;fill-opacity:1;stroke:none;stroke-width:0.49001387px;stroke-linecap:butt;stroke-linejoin:miter;stroke-opacity:1" />
      <path
         style="display:inline;opacity:1;fill:#333333;stroke:none;stroke-width:0.49001387px;stroke-linecap:butt;stroke-linejoin:miter;stroke-opacity:1"
         d="m 62.353568,301.93379 c -3.126629,3.79673 -11.969448,5.67562 -12.175895,4.4522 -0.247393,-1.406 5.152825,-0.7494 9.813544,-4.78293 0.04346,-2.78929 0.508246,-5.03751 2.976563,-6.04762 -1.09941,2.93795 0.373093,4.75043 -0.614212,6.37835 z"
         id="path4759"
         inkscape:connector-curvature="0"
         sodipodi:nodetypes="ccccc" />
      <path
         style="fill:#333333;fill-opacity:1;stroke:none;stroke-width:0.49001387px;stroke-linecap:butt;stroke-linejoin:miter;stroke-opacity:1"
         d="m 63.29851,301.88655 c 4.704452,-4.87097 5.09598,-0.25795 8.764321,-1.34655 -4.42307,5.46508 -6.060615,1.07939 -8.764321,1.34655 z"
         id="path4761"
         inkscape:connector-curvature="0"
         sodipodi:nodetypes="ccc" />
      <path
         sodipodi:nodetypes="ccc"
         inkscape:connector-curvature="0"
         id="path4763"
         d="m 64.563033,299.58046 c 5.409966,-4.07314 0.879509,-5.02613 2.408753,-8.53372 -5.965186,3.72119 -1.812799,5.88303 -2.408753,8.53372 z"
         style="fill:#333333;fill-opacity:1;stroke:none;stroke-width:0.49001387px;stroke-linecap:butt;stroke-linejoin:miter;stroke-opacity:1" />
      <path
         sodipodi:nodetypes="ccc"
         inkscape:connector-curvature="0"
         id="path4765"
         d="m 68.166316,298.26477 c 3.558582,-5.76149 4.924003,-1.33782 8.276165,-3.18302 -3.157076,6.282 -5.691466,2.34592 -8.276165,3.18302 z"
         style="fill:#333333;fill-opacity:1;stroke:none;stroke-width:0.49001387px;stroke-linecap:butt;stroke-linejoin:miter;stroke-opacity:1" />
      <path
         style="fill:#333333;fill-opacity:1;stroke:none;stroke-width:0.49001387px;stroke-linecap:butt;stroke-linejoin:miter;stroke-opacity:1"
         d="m 68.314939,296.23407 c 5.065809,-4.49397 0.473508,-5.08047 1.716466,-8.69943 -5.647473,4.18769 -1.335056,6.00948 -1.716466,8.69943 z"
         id="path4767"
         inkscape:connector-curvature="0"
         sodipodi:nodetypes="ccc" />
      <path
         style="fill:#333333;fill-opacity:1;stroke:none;stroke-width:0.49001387px;stroke-linecap:butt;stroke-linejoin:miter;stroke-opacity:1"
         d="m 71.715075,293.5493 c 3.428406,-5.83989 4.892745,-1.44797 8.202658,-3.36792 -3.015321,6.35125 -5.637393,2.47303 -8.202658,3.36792 z"
         id="path4769"
         inkscape:connector-curvature="0"
         sodipodi:nodetypes="ccc" />
      <path
         sodipodi:nodetypes="ccc"
         inkscape:connector-curvature="0"
         id="path4771"
         d="m 72.547549,291.32088 c 4.048475,-5.42845 -0.567296,-5.07085 -0.08458,-8.86675 -4.680188,5.24658 -0.08781,6.15537 0.08458,8.86675 z"
         style="fill:#333333;fill-opacity:1;stroke:none;stroke-width:0.49001387px;stroke-linecap:butt;stroke-linejoin:miter;stroke-opacity:1" />
      <path
         style="fill:#333333;fill-opacity:1;stroke:none;stroke-width:0.49001387px;stroke-linecap:butt;stroke-linejoin:miter;stroke-opacity:1"
         d="m 75.039136,288.75194 c 2.154911,-6.41986 4.49066,-2.42267 7.335304,-4.98194 -1.64555,6.83542 -5.00875,3.57893 -7.335304,4.98194 z"
         id="path4773"
         inkscape:connector-curvature="0"
         sodipodi:nodetypes="ccc" />
      <path
         sodipodi:nodetypes="ccc"
         inkscape:connector-curvature="0"
         id="path4775"
         d="m 75.552586,286.09201 c 3.348978,-5.8858 -1.187597,-4.96235 -1.176132,-8.78881 -3.998282,5.78313 0.671066,6.11932 1.176132,8.78881 z"
         style="fill:#333333;fill-opacity:1;stroke:none;stroke-width:0.49001387px;stroke-linecap:butt;stroke-linejoin:miter;stroke-opacity:1" />
      <path
         style="fill:#333333;fill-opacity:1;stroke:none;stroke-width:0.49001387px;stroke-linecap:butt;stroke-linejoin:miter;stroke-opacity:1"
         d="m 78.165909,283.10835 c 0.78978,-6.72566 3.897023,-3.29371 6.155094,-6.38289 -0.2059,7.02769 -4.166477,4.53176 -6.155094,6.38289 z"
         id="path4777"
         inkscape:connector-curvature="0"
         sodipodi:nodetypes="ccc" />
      <path
         sodipodi:nodetypes="ccc"
         inkscape:connector-curvature="0"
         id="path4779"
         d="m 79.587439,276.90194 c -0.546161,-6.74982 3.174453,-3.99477 4.782016,-7.46719 1.177978,6.93132 -3.195574,5.26163 -4.782016,7.46719 z"
         style="fill:#333333;fill-opacity:1;stroke:none;stroke-width:0.49001387px;stroke-linecap:butt;stroke-linejoin:miter;stroke-opacity:1" />
      <path
         style="fill:#333333;fill-opacity:1;stroke:none;stroke-width:0.49001387px;stroke-linecap:butt;stroke-linejoin:miter;stroke-opacity:1"
         d="m 77.766321,279.83729 c 1.868933,-6.50887 -2.322652,-4.54319 -3.212496,-8.26476 -2.524155,6.56196 2.093067,5.78924 3.212496,8.26476 z"
         id="path4781"
         inkscape:connector-curvature="0"
         sodipodi:nodetypes="ccc" />
      <path
         sodipodi:nodetypes="ccc"
         inkscape:connector-curvature="0"
         id="path4783"
         d="m 78.627054,273.12301 c 0.524634,-6.75152 -3.187176,-3.98462 -4.805803,-7.45189 -1.15587,6.93503 3.212334,5.2514 4.805803,7.45189 z"
         style="fill:#333333;fill-opacity:1;stroke:none;stroke-width:0.49001387px;stroke-linecap:butt;stroke-linejoin:miter;stroke-opacity:1" />
      <path
         style="fill:#333333;fill-opacity:1;stroke:none;stroke-width:0.49001387px;stroke-linecap:butt;stroke-linejoin:miter;stroke-opacity:1"
         d="m 80.046426,270.04519 c -1.667854,-6.56328 2.461288,-4.46961 3.465177,-8.16205 2.321132,6.6365 -2.270139,5.72214 -3.465177,8.16205 z"
         id="path4785"
         inkscape:connector-curvature="0"
         sodipodi:nodetypes="ccc" />
      <path
         sodipodi:nodetypes="ccc"
         inkscape:connector-curvature="0"
         id="path4787"
         d="m 79.182198,263.45466 c -2.593705,-6.25548 1.793446,-4.77691 2.256302,-8.57529 3.250724,6.23407 -1.42429,5.98898 -2.256302,8.57529 z"
         style="fill:#333333;fill-opacity:1;stroke:none;stroke-width:0.49001387px;stroke-linecap:butt;stroke-linejoin:miter;stroke-opacity:1" />
      <path
         style="fill:#333333;fill-opacity:1;stroke:none;stroke-width:0.49001387px;stroke-linecap:butt;stroke-linejoin:miter;stroke-opacity:1"
         d="m 78.502394,266.93572 c -0.250931,-6.76722 -3.621958,-3.59398 -5.626492,-6.85339 -0.355176,7.02171 3.791823,4.84957 5.626492,6.85339 z"
         id="path4789"
         inkscape:connector-curvature="0"
         sodipodi:nodetypes="ccc" />
      <path
         sodipodi:nodetypes="ccc"
         inkscape:connector-curvature="0"
         id="path4791"
         d="m 77.314865,260.80197 c -0.971052,-6.70189 -3.984517,-3.1873 -6.325156,-6.2144 0.395534,7.01955 4.28729,4.41762 6.325156,6.2144 z"
         style="fill:#333333;fill-opacity:1;stroke:none;stroke-width:0.49001387px;stroke-linecap:butt;stroke-linejoin:miter;stroke-opacity:1" />
      <path
         style="fill:#333333;fill-opacity:1;stroke:none;stroke-width:0.49001387px;stroke-linecap:butt;stroke-linejoin:miter;stroke-opacity:1"
         d="m 77.194958,256.85286 c -3.537131,-5.77469 1.026875,-4.99809 0.891964,-8.82218 4.18278,5.65112 -0.47329,6.13779 -0.891964,8.82218 z"
         id="path4793"
         inkscape:connector-curvature="0"
         sodipodi:nodetypes="ccc" />
      <path
         style="display:inline;opacity:1;fill:#333333;fill-opacity:1;stroke:none;stroke-width:0.49001387px;stroke-linecap:butt;stroke-linejoin:miter;stroke-opacity:1"
         d="m 74.921276,254.49778 c -2.213813,0.29945 -5.671476,-1.09884 -5.764137,-5.33891 2.837457,-0.12838 5.861754,1.71428 5.764137,5.33891 z"
         id="path4795"
         inkscape:connector-curvature="0"
         sodipodi:nodetypes="ccc" />
      <path
         style="opacity:1;fill:#333333;fill-opacity:1;stroke:none;stroke-width:1.96005547;stroke-linecap:round;stroke-linejoin:miter;stroke-miterlimit:4;stroke-dasharray:none;stroke-dashoffset:0;stroke-opacity:1"
         d="m 23.003002,257.66259 h 16.037499 c 0.31428,0 0.56729,0.25301 0.56729,0.56728 v 11.61769 c 0,0.31427 -0.25301,0.56728 -0.56729,0.56728 H 23.003002 c -0.314275,0 -0.567284,-0.25301 -0.567284,-0.56728 v -11.61769 c 0,-0.31427 0.253009,-0.56728 0.567284,-0.56728 z"
         id="rect4811"
         inkscape:connector-curvature="0" />
      <path
         sodipodi:nodetypes="ccccc"
         inkscape:connector-curvature="0"
         id="path4815"
         d="m 22.101897,270.70351 -2.204444,6.52009 h 22.248598 l -2.37317,-6.52009 z"
         style="display:inline;opacity:1;fill:#333333;stroke:none;stroke-width:0.49001381px;stroke-linecap:butt;stroke-linejoin:miter;stroke-opacity:1" />
      <path
         inkscape:connector-curvature="0"
         id="path4833"
         d="m 49.138672,257.46094 -0.21875,8.93554 0.08203,0.0352 1.515625,0.65234 1.226563,-0.49804 -0.509766,-9.125 z m 0.257812,0.26367 h 1.587891 l 0.484375,8.6875 -0.947266,0.38477 -1.332031,-0.57422 z"
         style="color:#000000;font-style:normal;font-variant:normal;font-weight:normal;font-stretch:normal;font-size:medium;line-height:normal;font-family:sans-serif;font-variant-ligatures:normal;font-variant-position:normal;font-variant-caps:normal;font-variant-numeric:normal;font-variant-alternates:normal;font-feature-settings:normal;text-indent:0;text-align:start;text-decoration:none;text-decoration-line:none;text-decoration-style:solid;text-decoration-color:#000000;letter-spacing:normal;word-spacing:normal;text-transform:none;writing-mode:lr-tb;direction:ltr;text-orientation:mixed;dominant-baseline:auto;baseline-shift:baseline;text-anchor:start;white-space:normal;shape-padding:0;clip-rule:nonzero;display:inline;overflow:visible;visibility:visible;opacity:1;isolation:auto;mix-blend-mode:normal;color-interpolation:sRGB;color-interpolation-filters:linearRGB;solid-color:#000000;solid-opacity:1;vector-effect:none;fill:#333333;fill-opacity:1;fill-rule:nonzero;stroke:none;stroke-width:0.49001387px;stroke-linecap:butt;stroke-linejoin:miter;stroke-miterlimit:4;stroke-dasharray:none;stroke-dashoffset:0;stroke-opacity:1;color-rendering:auto;image-rendering:auto;shape-rendering:auto;text-rendering:auto;enable-background:accumulate" />
      <path
         inkscape:connector-curvature="0"
         id="path4822"
         d="m 45.086017,263.5691 v 7.55975 h 5.035867 v -4.65243 z m 0.93586,3.44475 h 1.463992 v 1.14102 h -1.463992 z m 1.700154,0 h 1.463477 v 1.14102 h -1.463477 z m -1.700154,1.36995 h 1.463992 v 1.14101 h -1.463992 z m 1.700154,0 h 1.463477 v 1.14101 h -1.463477 z"
         style="display:inline;opacity:1;fill:#333333;fill-opacity:1;stroke:none;stroke-width:0.49001387px;stroke-linecap:butt;stroke-linejoin:miter;stroke-opacity:1" />
      <path
         inkscape:connector-curvature="0"
         id="path4835"
         d="m 53.560547,259.37305 -0.185547,7.34179 0.09375,0.0312 1.279297,0.41016 1.044922,-0.42773 -0.429688,-7.35547 z m 0.257812,0.26562 h 1.294922 l 0.404297,6.91602 -0.78125,0.32031 -1.091797,-0.34961 z"
         style="color:#000000;font-style:normal;font-variant:normal;font-weight:normal;font-stretch:normal;font-size:medium;line-height:normal;font-family:sans-serif;font-variant-ligatures:normal;font-variant-position:normal;font-variant-caps:normal;font-variant-numeric:normal;font-variant-alternates:normal;font-feature-settings:normal;text-indent:0;text-align:start;text-decoration:none;text-decoration-line:none;text-decoration-style:solid;text-decoration-color:#000000;letter-spacing:normal;word-spacing:normal;text-transform:none;writing-mode:lr-tb;direction:ltr;text-orientation:mixed;dominant-baseline:auto;baseline-shift:baseline;text-anchor:start;white-space:normal;shape-padding:0;clip-rule:nonzero;display:inline;overflow:visible;visibility:visible;opacity:1;isolation:auto;mix-blend-mode:normal;color-interpolation:sRGB;color-interpolation-filters:linearRGB;solid-color:#000000;solid-opacity:1;vector-effect:none;fill:#333333;fill-opacity:1;fill-rule:nonzero;stroke:none;stroke-width:0.49001387px;stroke-linecap:butt;stroke-linejoin:miter;stroke-miterlimit:4;stroke-dasharray:none;stroke-dashoffset:0;stroke-opacity:1;color-rendering:auto;image-rendering:auto;shape-rendering:auto;text-rendering:auto;enable-background:accumulate" />
      <path
         inkscape:connector-curvature="0"
         id="path4825"
         d="m 50.121884,263.5691 v 7.55975 h 5.035352 v -4.65243 z m 0.93586,3.44475 h 1.463477 v 1.14102 h -1.463477 z m 1.699639,0 h 1.463992 v 1.14102 h -1.463992 z m -1.699639,1.36995 h 1.463477 v 1.14101 h -1.463477 z m 1.699639,0 h 1.463992 v 1.14101 h -1.463992 z"
         style="display:inline;opacity:1;fill:#333333;fill-opacity:1;stroke:none;stroke-width:0.49001387px;stroke-linecap:butt;stroke-linejoin:miter;stroke-opacity:1" />
      <path
         inkscape:connector-curvature="0"
         id="path4827"
         d="m 55.157236,263.5691 v 7.55975 h 5.035351 v -4.65243 z m 0.93586,3.44475 h 1.463992 v 1.14102 h -1.463992 z m 1.700154,0 h 1.463477 v 1.14102 H 57.79325 Z m -1.700154,1.36995 h 1.463992 v 1.14101 h -1.463992 z m 1.700154,0 h 1.463477 v 1.14101 H 57.79325 Z"
         style="display:inline;opacity:1;fill:#333333;fill-opacity:1;stroke:none;stroke-width:0.49001387px;stroke-linecap:butt;stroke-linejoin:miter;stroke-opacity:1" />
      <path
         style="display:inline;opacity:1;fill:#333333;fill-opacity:1;stroke:none;stroke-width:0.49001387px;stroke-linecap:butt;stroke-linejoin:miter;stroke-opacity:1"
         d="M 41.798761,271.12874 V 266.971 l 3.2874,1.6316 v 2.52614 z"
         id="path4829"
         inkscape:connector-curvature="0"
         sodipodi:nodetypes="ccccc" />
      <path
         sodipodi:nodetypes="ccccc"
         inkscape:connector-curvature="0"
         id="path4831"
         d="m 60.192781,271.12874 v -2.66788 h 3.90161 v 2.66788 z"
         style="display:inline;opacity:1;fill:#333333;fill-opacity:1;stroke:none;stroke-width:0.49001387px;stroke-linecap:butt;stroke-linejoin:miter;stroke-opacity:1" />
      <path
         inkscape:connector-curvature="0"
         id="path4936"
         d="m 52.757812,255.88867 c -0.680614,0.0273 -1.361791,0.15505 -1.888671,0.42188 -0.526881,0.26683 -0.90625,0.69435 -0.90625,1.28125 v 0.13281 h 0.130859 1.015625 c 0.756978,0 1.84126,0.0463 2.744141,-0.0234 0.45144,-0.0349 0.856911,-0.0963 1.166015,-0.21679 0.154553,-0.0602 0.288041,-0.13583 0.386719,-0.23829 0.09868,-0.10245 0.160156,-0.23866 0.160156,-0.38671 0,-0.19026 -0.117851,-0.35175 -0.283203,-0.47461 -0.165351,-0.12287 -0.386571,-0.21779 -0.646484,-0.29493 -0.519827,-0.15427 -1.198292,-0.22849 -1.878907,-0.20117 z m 0.01172,0.26367 c 0.654114,-0.0263 1.309797,0.0466 1.791016,0.18946 0.240609,0.0714 0.437833,0.16177 0.564453,0.25586 0.12662,0.0941 0.175781,0.17945 0.175781,0.26172 0,0.0806 -0.02561,0.14049 -0.08594,0.20312 -0.06032,0.0626 -0.15938,0.12253 -0.291016,0.17383 -0.263271,0.10259 -0.651074,0.16728 -1.089844,0.20117 -0.877539,0.0678 -1.957087,0.0234 -2.724609,0.0234 h -0.787109 c 0.06161,-0.38536 0.251226,-0.70596 0.666015,-0.91602 0.474165,-0.24013 1.127137,-0.36632 1.78125,-0.39258 z"
         style="color:#000000;font-style:normal;font-variant:normal;font-weight:normal;font-stretch:normal;font-size:medium;line-height:normal;font-family:sans-serif;font-variant-ligatures:normal;font-variant-position:normal;font-variant-caps:normal;font-variant-numeric:normal;font-variant-alternates:normal;font-feature-settings:normal;text-indent:0;text-align:start;text-decoration:none;text-decoration-line:none;text-decoration-style:solid;text-decoration-color:#000000;letter-spacing:normal;word-spacing:normal;text-transform:none;writing-mode:lr-tb;direction:ltr;text-orientation:mixed;dominant-baseline:auto;baseline-shift:baseline;text-anchor:start;white-space:normal;shape-padding:0;clip-rule:nonzero;display:inline;overflow:visible;visibility:visible;opacity:1;isolation:auto;mix-blend-mode:normal;color-interpolation:sRGB;color-interpolation-filters:linearRGB;solid-color:#000000;solid-opacity:1;vector-effect:none;fill:#333333;fill-opacity:1;fill-rule:nonzero;stroke:none;stroke-width:0.49001387px;stroke-linecap:butt;stroke-linejoin:miter;stroke-miterlimit:4;stroke-dasharray:none;stroke-dashoffset:0;stroke-opacity:1;color-rendering:auto;image-rendering:auto;shape-rendering:auto;text-rendering:auto;enable-background:accumulate" />
      <path
         inkscape:connector-curvature="0"
         id="path4938"
         d="m 56.841797,257.79297 c -0.680614,0.0273 -1.361791,0.15504 -1.888672,0.42187 -0.526881,0.26683 -0.90625,0.69435 -0.90625,1.28125 v 0.13282 h 0.130859 1.017578 c 0.756979,0 1.839307,0.0463 2.742188,-0.0234 0.45144,-0.0349 0.856911,-0.0963 1.166016,-0.2168 0.154552,-0.0602 0.28804,-0.13582 0.386718,-0.23828 0.09868,-0.10246 0.160157,-0.23866 0.160157,-0.38672 0,-0.19025 -0.117852,-0.35174 -0.283203,-0.47461 -0.165352,-0.12287 -0.386571,-0.21973 -0.646485,-0.29687 -0.519827,-0.15428 -1.198292,-0.22654 -1.878906,-0.19922 z m 0.01172,0.26367 c 0.654113,-0.0263 1.31175,0.0466 1.792968,0.18945 0.24061,0.0714 0.43588,0.16178 0.5625,0.25586 0.126621,0.0941 0.175782,0.17945 0.175782,0.26172 0,0.0806 -0.02561,0.14049 -0.08594,0.20313 -0.06032,0.0626 -0.15938,0.12253 -0.291016,0.17382 -0.263271,0.1026 -0.651074,0.16729 -1.089843,0.20118 -0.877539,0.0678 -1.955135,0.0234 -2.722657,0.0234 H 54.40625 c 0.06161,-0.38536 0.251227,-0.70595 0.666016,-0.91601 0.474164,-0.24013 1.127136,-0.36632 1.78125,-0.39258 z"
         style="color:#000000;font-style:normal;font-variant:normal;font-weight:normal;font-stretch:normal;font-size:medium;line-height:normal;font-family:sans-serif;font-variant-ligatures:normal;font-variant-position:normal;font-variant-caps:normal;font-variant-numeric:normal;font-variant-alternates:normal;font-feature-settings:normal;text-indent:0;text-align:start;text-decoration:none;text-decoration-line:none;text-decoration-style:solid;text-decoration-color:#000000;letter-spacing:normal;word-spacing:normal;text-transform:none;writing-mode:lr-tb;direction:ltr;text-orientation:mixed;dominant-baseline:auto;baseline-shift:baseline;text-anchor:start;white-space:normal;shape-padding:0;clip-rule:nonzero;display:inline;overflow:visible;visibility:visible;opacity:1;isolation:auto;mix-blend-mode:normal;color-interpolation:sRGB;color-interpolation-filters:linearRGB;solid-color:#000000;solid-opacity:1;vector-effect:none;fill:#333333;fill-opacity:1;fill-rule:nonzero;stroke:none;stroke-width:0.49001387px;stroke-linecap:butt;stroke-linejoin:miter;stroke-miterlimit:4;stroke-dasharray:none;stroke-dashoffset:0;stroke-opacity:1;color-rendering:auto;image-rendering:auto;shape-rendering:auto;text-rendering:auto;enable-background:accumulate" />
      <path
         inkscape:connector-curvature="0"
         id="path4999"
         d="m 13.809372,282.74416 a 30.506715,30.506715 0 0 0 0.592728,1.32447 30.506715,30.506715 0 0 0 0.718304,1.25212 c 1.474737,0.65109 3.03562,1.02419 4.552693,1.01234 1.898166,-0.0148 3.884033,-0.6725 5.821865,-1.29915 1.937833,-0.62666 3.829066,-1.22227 5.355746,-1.2516 1.834153,-0.0352 3.51282,0.55705 5.296834,1.20664 1.784014,0.64962 3.671671,1.35594 5.859592,1.34411 2.088849,-0.0113 4.005977,-0.68562 5.839437,-1.31827 1.833448,-0.63266 3.583307,-1.22304 5.328356,-1.23248 1.84712,-0.01 3.531634,0.56272 5.314405,1.19321 1.782781,0.6305 3.660812,1.31853 5.833753,1.35754 1.138097,0.0204 2.333336,-0.13142 3.508311,-0.6103 a 30.506715,30.506715 0 0 0 0.530717,-0.8661 30.506715,30.506715 0 0 0 1.045933,-2.16472 c -1.640991,1.83455 -3.190994,2.08653 -5.055505,2.0531 -1.851631,-0.0332 -3.545412,-0.63299 -5.334043,-1.26555 -1.78862,-0.63257 -3.673223,-1.29699 -5.851323,-1.2852 -2.088838,0.0113 -4.006512,0.68562 -5.839952,1.31827 -1.833452,0.63266 -3.583308,1.22306 -5.328357,1.23248 -1.83729,0.01 -3.520794,-0.59714 -5.308203,-1.24798 -1.787408,-0.65084 -3.68115,-1.34484 -5.871477,-1.30277 -1.894012,0.0364 -3.876521,0.70218 -5.812049,1.32809 -1.935525,0.62591 -3.82283,1.21078 -5.345925,1.22266 -1.953072,0.0153 -4.095848,-0.70145 -5.85184,-2.00091 z"
         style="color:#000000;font-style:normal;font-variant:normal;font-weight:normal;font-stretch:normal;font-size:medium;line-height:normal;font-family:sans-serif;font-variant-ligatures:normal;font-variant-position:normal;font-variant-caps:normal;font-variant-numeric:normal;font-variant-alternates:normal;font-feature-settings:normal;text-indent:0;text-align:start;text-decoration:none;text-decoration-line:none;text-decoration-style:solid;text-decoration-color:#000000;letter-spacing:normal;word-spacing:normal;text-transform:none;writing-mode:lr-tb;direction:ltr;text-orientation:mixed;dominant-baseline:auto;baseline-shift:baseline;text-anchor:start;white-space:normal;shape-padding:0;clip-rule:nonzero;display:inline;overflow:visible;visibility:visible;opacity:1;isolation:auto;mix-blend-mode:normal;color-interpolation:sRGB;color-interpolation-filters:linearRGB;solid-color:#000000;solid-opacity:1;vector-effect:none;fill:#333333;fill-opacity:1;fill-rule:nonzero;stroke:none;stroke-width:2.94008327;stroke-linecap:butt;stroke-linejoin:miter;stroke-miterlimit:4;stroke-dasharray:none;stroke-dashoffset:0;stroke-opacity:1;color-rendering:auto;image-rendering:auto;shape-rendering:auto;text-rendering:auto;enable-background:accumulate" />
      <path
         inkscape:connector-curvature="0"
         id="path5001"
         d="m 16.534787,287.57436 a 30.506715,30.506715 0 0 0 1.158587,1.62005 30.506715,30.506715 0 0 0 0.595828,0.67851 c 0.737021,0.16163 1.47651,0.26896 2.206067,0.26304 1.841293,-0.0149 3.755644,-0.67609 5.620845,-1.30276 1.865201,-0.62669 3.683344,-1.21947 5.138706,-1.24851 1.751721,-0.035 3.3592,0.55399 5.076174,1.20355 1.716976,0.64956 3.540871,1.35963 5.66012,1.34772 2.023621,-0.0114 3.874272,-0.68974 5.638932,-1.3224 1.76466,-0.63265 3.44283,-1.21951 5.10925,-1.22887 1.76516,-0.01 3.382179,0.56124 5.09788,1.19166 1.715699,0.63043 3.529031,1.32038 5.632731,1.35961 0.418774,0.008 0.850087,-0.024 1.282091,-0.0693 a 30.506715,30.506715 0 0 0 0.170532,-0.18293 30.506715,30.506715 0 0 0 1.362191,-1.79111 c -0.879006,0.38185 -1.780704,0.47605 -2.785358,0.45734 -1.76988,-0.033 -3.393752,-0.63138 -5.115452,-1.26401 -1.72171,-0.63263 -3.543326,-1.30068 -5.652368,-1.28881 -2.02362,0.0114 -3.874272,0.68923 -5.638932,1.32189 -1.764659,0.63266 -3.442819,1.21951 -5.109249,1.22886 -1.754939,0.01 -3.369157,-0.59349 -5.08961,-1.24437 -1.720456,-0.65088 -3.550243,-1.34872 -5.672005,-1.30638 -1.836994,0.0367 -3.746646,0.70581 -5.609479,1.3317 -1.862831,0.62589 -3.677277,1.20728 -5.128884,1.21905 -1.287251,0.0104 -2.660695,-0.34649 -3.948597,-0.97358 z"
         style="color:#000000;font-style:normal;font-variant:normal;font-weight:normal;font-stretch:normal;font-size:medium;line-height:normal;font-family:sans-serif;font-variant-ligatures:normal;font-variant-position:normal;font-variant-caps:normal;font-variant-numeric:normal;font-variant-alternates:normal;font-feature-settings:normal;text-indent:0;text-align:start;text-decoration:none;text-decoration-line:none;text-decoration-style:solid;text-decoration-color:#000000;letter-spacing:normal;word-spacing:normal;text-transform:none;writing-mode:lr-tb;direction:ltr;text-orientation:mixed;dominant-baseline:auto;baseline-shift:baseline;text-anchor:start;white-space:normal;shape-padding:0;clip-rule:nonzero;display:inline;overflow:visible;visibility:visible;opacity:1;isolation:auto;mix-blend-mode:normal;color-interpolation:sRGB;color-interpolation-filters:linearRGB;solid-color:#000000;solid-opacity:1;vector-effect:none;fill:#333333;fill-opacity:1;fill-rule:nonzero;stroke:none;stroke-width:2.94008327;stroke-linecap:butt;stroke-linejoin:miter;stroke-miterlimit:4;stroke-dasharray:none;stroke-dashoffset:0;stroke-opacity:1;color-rendering:auto;image-rendering:auto;shape-rendering:auto;text-rendering:auto;enable-background:accumulate" />
      <path
         inkscape:connector-curvature="0"
         id="path5003"
         d="m 20.622393,292.33944 a 30.506715,30.506715 0 0 0 1.314649,1.22421 30.506715,30.506715 0 0 0 0.251663,0.19121 c 1.305812,-0.23989 2.628062,-0.68068 3.927409,-1.11725 1.865201,-0.62668 3.683344,-1.22101 5.138706,-1.25005 1.751721,-0.035 3.3592,0.55347 5.076174,1.20303 1.716976,0.64956 3.540871,1.3617 5.66012,1.34979 2.023621,-0.0114 3.874272,-0.68974 5.638932,-1.3224 1.76466,-0.63265 3.44283,-1.22105 5.10925,-1.23042 1.76516,-0.01 3.382179,0.56123 5.09788,1.19166 1.044223,0.3837 2.134341,0.7726 3.294372,1.04076 a 30.506715,30.506715 0 0 0 1.531689,-1.34565 c -1.452152,-0.16791 -2.833542,-0.65215 -4.279326,-1.18339 -1.72171,-0.63263 -3.543326,-1.30119 -5.652368,-1.28933 -2.02362,0.0114 -3.874272,0.68767 -5.638932,1.32033 -1.764659,0.63265 -3.442819,1.22107 -5.109249,1.23042 -1.754939,0.01 -3.369157,-0.59504 -5.08961,-1.24592 -1.720456,-0.65088 -3.550243,-1.34717 -5.672005,-1.30483 -1.836994,0.0367 -3.746646,0.70427 -5.609479,1.33015 -1.80663,0.60701 -3.561106,1.1633 -4.989875,1.20768 z"
         style="color:#000000;font-style:normal;font-variant:normal;font-weight:normal;font-stretch:normal;font-size:medium;line-height:normal;font-family:sans-serif;font-variant-ligatures:normal;font-variant-position:normal;font-variant-caps:normal;font-variant-numeric:normal;font-variant-alternates:normal;font-feature-settings:normal;text-indent:0;text-align:start;text-decoration:none;text-decoration-line:none;text-decoration-style:solid;text-decoration-color:#000000;letter-spacing:normal;word-spacing:normal;text-transform:none;writing-mode:lr-tb;direction:ltr;text-orientation:mixed;dominant-baseline:auto;baseline-shift:baseline;text-anchor:start;white-space:normal;shape-padding:0;clip-rule:nonzero;display:inline;overflow:visible;visibility:visible;opacity:1;isolation:auto;mix-blend-mode:normal;color-interpolation:sRGB;color-interpolation-filters:linearRGB;solid-color:#000000;solid-opacity:1;vector-effect:none;fill:#333333;fill-opacity:1;fill-rule:nonzero;stroke:none;stroke-width:2.94008327;stroke-linecap:butt;stroke-linejoin:miter;stroke-miterlimit:4;stroke-dasharray:none;stroke-dashoffset:0;stroke-opacity:1;color-rendering:auto;image-rendering:auto;shape-rendering:auto;text-rendering:auto;enable-background:accumulate" />
      <path
         inkscape:connector-curvature="0"
         id="path5005"
         d="m 24.282118,295.34701 a 30.506715,30.506715 0 0 0 0.08217,0.0625 30.506715,30.506715 0 0 0 1.705322,1.04541 c 0.0154,-0.005 0.03113,-0.009 0.04651,-0.0145 1.865201,-0.62669 3.683344,-1.21895 5.138706,-1.24799 1.751721,-0.035 3.3592,0.55346 5.076174,1.20303 1.716976,0.64956 3.540871,1.35964 5.66012,1.34772 2.023621,-0.0113 3.874272,-0.68975 5.638932,-1.3224 1.76466,-0.63266 3.44283,-1.21898 5.10925,-1.22835 1.631267,-0.009 3.140913,0.49304 4.713922,1.06454 a 30.506715,30.506715 0 0 0 0.619601,-0.35554 30.506715,30.506715 0 0 0 1.057818,-0.75654 c -0.24968,-0.0898 -0.493583,-0.15865 -0.746726,-0.25166 -1.72171,-0.63263 -3.543326,-1.30068 -5.652368,-1.28881 -2.02362,0.0114 -3.874272,0.68975 -5.638932,1.3224 -1.764659,0.63266 -3.442819,1.219 -5.109249,1.22835 -1.754939,0.01 -3.369157,-0.59349 -5.08961,-1.24437 -1.720456,-0.65088 -3.550243,-1.34872 -5.672005,-1.30638 -1.836994,0.0367 -3.746646,0.70633 -5.609479,1.33222 -0.455676,0.1531 -0.884864,0.27024 -1.33015,0.41031 z"
         style="color:#000000;font-style:normal;font-variant:normal;font-weight:normal;font-stretch:normal;font-size:medium;line-height:normal;font-family:sans-serif;font-variant-ligatures:normal;font-variant-position:normal;font-variant-caps:normal;font-variant-numeric:normal;font-variant-alternates:normal;font-feature-settings:normal;text-indent:0;text-align:start;text-decoration:none;text-decoration-line:none;text-decoration-style:solid;text-decoration-color:#000000;letter-spacing:normal;word-spacing:normal;text-transform:none;writing-mode:lr-tb;direction:ltr;text-orientation:mixed;dominant-baseline:auto;baseline-shift:baseline;text-anchor:start;white-space:normal;shape-padding:0;clip-rule:nonzero;display:inline;overflow:visible;visibility:visible;opacity:1;isolation:auto;mix-blend-mode:normal;color-interpolation:sRGB;color-interpolation-filters:linearRGB;solid-color:#000000;solid-opacity:1;vector-effect:none;fill:#333333;fill-opacity:1;fill-rule:nonzero;stroke:none;stroke-width:2.94008327;stroke-linecap:butt;stroke-linejoin:miter;stroke-miterlimit:4;stroke-dasharray:none;stroke-dashoffset:0;stroke-opacity:1;color-rendering:auto;image-rendering:auto;shape-rendering:auto;text-rendering:auto;enable-background:accumulate" />
      <path
         inkscape:connector-curvature="0"
         id="path5007"
         d="m 28.62914,297.80784 a 30.506715,30.506715 0 0 0 1.081071,0.52193 30.506715,30.506715 0 0 0 1.881021,0.68627 c 1.621033,0.041 3.134649,0.57511 4.739762,1.18235 0.08724,0.033 0.184518,0.0603 0.272335,0.0935 a 30.506715,30.506715 0 0 0 1.940968,0.29352 30.506715,30.506715 0 0 0 3.045809,0.15244 30.506715,30.506715 0 0 0 2.157489,-0.0765 30.506715,30.506715 0 0 0 3.027207,-0.36742 30.506715,30.506715 0 0 0 2.041218,-0.45837 c 0.745683,-0.25174 1.489498,-0.48831 2.215369,-0.6351 a 30.506715,30.506715 0 0 0 1.612821,-0.53588 30.506715,30.506715 0 0 0 2.270146,-1.01648 c -0.699074,-0.14081 -1.416902,-0.24512 -2.182813,-0.24081 -2.02362,0.0114 -3.874272,0.68922 -5.638932,1.32188 -1.764659,0.63265 -3.442819,1.21952 -5.109249,1.22887 -1.754939,0.01 -3.369157,-0.59349 -5.08961,-1.24437 -1.720456,-0.65087 -3.550243,-1.34872 -5.672005,-1.30638 -0.852324,0.017 -1.720961,0.17858 -2.592607,0.40049 z"
         style="color:#000000;font-style:normal;font-variant:normal;font-weight:normal;font-stretch:normal;font-size:medium;line-height:normal;font-family:sans-serif;font-variant-ligatures:normal;font-variant-position:normal;font-variant-caps:normal;font-variant-numeric:normal;font-variant-alternates:normal;font-feature-settings:normal;text-indent:0;text-align:start;text-decoration:none;text-decoration-line:none;text-decoration-style:solid;text-decoration-color:#000000;letter-spacing:normal;word-spacing:normal;text-transform:none;writing-mode:lr-tb;direction:ltr;text-orientation:mixed;dominant-baseline:auto;baseline-shift:baseline;text-anchor:start;white-space:normal;shape-padding:0;clip-rule:nonzero;display:inline;overflow:visible;visibility:visible;opacity:1;isolation:auto;mix-blend-mode:normal;color-interpolation:sRGB;color-interpolation-filters:linearRGB;solid-color:#000000;solid-opacity:1;vector-effect:none;fill:#333333;fill-opacity:1;fill-rule:nonzero;stroke:none;stroke-width:2.94008327;stroke-linecap:butt;stroke-linejoin:miter;stroke-miterlimit:4;stroke-dasharray:none;stroke-dashoffset:0;stroke-opacity:1;color-rendering:auto;image-rendering:auto;shape-rendering:auto;text-rendering:auto;enable-background:accumulate" />
      <path
         inkscape:connector-curvature="0"
         id="path5094"
         d="m 50.121881,266.47642 h 0.52748 v 4.65243 h -0.52748 -0.47478 v -4.32322 z"
         style="fill:#333333;fill-opacity:1;stroke:none;stroke-width:0.49001387px;stroke-linecap:butt;stroke-linejoin:miter;stroke-opacity:1" />
      <path
         style="fill:#333333;fill-opacity:1;stroke:none;stroke-width:0.49001387px;stroke-linecap:butt;stroke-linejoin:miter;stroke-opacity:1"
         d="m 55.157231,266.47642 h 0.52748 v 4.65243 h -0.52748 -0.47478 v -4.32322 z"
         id="path5096"
         inkscape:connector-curvature="0" />
      <path
         inkscape:connector-curvature="0"
         id="path5098"
         d="m 60.192781,268.46086 h 0.52748 v 2.66788 h -0.52748 -0.47478 v -2.4791 z"
         style="fill:#333333;fill-opacity:1;stroke:none;stroke-width:0.49001387px;stroke-linecap:butt;stroke-linejoin:miter;stroke-opacity:1" />
      <path
         inkscape:connector-curvature="0"
         id="rect5104"
         d="m 47.509544,283.54262 0.04884,-0.0282 c 0.205516,-0.11865 0.46649,-0.0487 0.58515,0.15679 l 1.919045,3.32388 c 0.11866,0.20553 0.04873,0.4665 -0.15679,0.58515 l -0.04884,0.0282 c -0.205525,0.11866 -0.466491,0.0487 -0.585151,-0.15679 l -1.919045,-3.32388 c -0.11866,-0.20552 -0.04873,-0.46649 0.156791,-0.58515 z"
         style="opacity:1;fill:#333333;fill-opacity:1;stroke:none;stroke-width:0.24500693;stroke-linecap:round;stroke-linejoin:miter;stroke-miterlimit:4;stroke-dasharray:none;stroke-dashoffset:0;stroke-opacity:1" />
      <path
         inkscape:connector-curvature="0"
         id="path5106"
         d="m 48.024853,282.8382 a 0.77027678,0.77027678 0 0 1 -0.281942,1.05222 0.77027678,0.77027678 0 0 1 -1.052214,-0.28194 0.77027678,0.77027678 0 0 1 0.281934,-1.05222 0.77027678,0.77027678 0 0 1 1.052222,0.28194 z"
         style="opacity:1;fill:#333333;fill-opacity:1;stroke:none;stroke-width:0.24500693;stroke-linecap:round;stroke-linejoin:miter;stroke-miterlimit:4;stroke-dasharray:none;stroke-dashoffset:0;stroke-opacity:1" />
      <path
         sodipodi:nodetypes="cccccccccccccccccccccccc"
         inkscape:connector-curvature="0"
         id="path5100"
         d="m 47.586024,281.91043 c -0.354306,-4.4168 1.303927,-5.89693 2.68555,-7.97037 0.464412,0.1163 0.591126,0.008 0.761344,-0.0723 0.516812,0.27283 0.653143,0.56562 0.907938,0.77294 0.252154,0.0199 0.503436,0.0382 0.790729,0.12844 0.0853,0.39858 0.04356,0.76544 -0.01352,1.12845 0.202318,0.0893 0.34659,0.17873 0.421267,0.2681 0.03485,0.3091 0.0023,0.50603 -0.03829,0.68936 0.205097,0.21024 0.393826,0.42864 0.497978,0.68932 -0.130604,0.32801 -0.318372,0.45596 -0.497884,0.61278 0.303023,0.31277 0.380787,0.62554 0.459544,0.93835 -0.09502,0.31992 -0.305208,0.52459 -0.497877,0.74682 0.168961,0.28065 0.272706,0.57454 0.313777,0.88087 l -0.612781,0.49788 c 0.274261,0.0656 0.52239,0.0546 1.06499,0.38299 l 0.03828,0.26807 0.45957,0.0766 c 0.537365,1.16699 1.101036,2.46523 0.670234,3.73412 -0.257038,0.74214 -0.60196,1.28498 -0.765969,1.93408 l -0.900018,-0.19149 -0.229794,0.61278 c -0.879276,0.0326 -1.950784,0.0516 -3.331986,-1.32131 l -1.953165,-3.35118 z"
         style="fill:#333333;stroke:none;stroke-width:0.24500699;stroke-linecap:butt;stroke-linejoin:miter;stroke-miterlimit:4;stroke-dasharray:none;stroke-opacity:1" />
      <path
         style="fill:#333333;stroke:none;stroke-width:0.24500699;stroke-linecap:butt;stroke-linejoin:miter;stroke-miterlimit:4;stroke-dasharray:none;stroke-opacity:1"
         d="m 46.106654,282.76454 c -3.647905,-2.51523 -5.758857,-1.81923 -8.245328,-1.65942 -0.131474,0.46034 -0.288608,0.51593 -0.443306,0.62317 -0.02213,0.58398 0.163267,0.84844 0.215412,1.17276 -0.108805,0.22835 -0.218656,0.45508 -0.284129,0.74902 0.302531,0.27316 0.641096,0.42045 0.984025,0.55252 -0.02382,0.21986 -0.01851,0.38952 0.02154,0.49888 0.250267,0.18473 0.437102,0.255 0.616157,0.31151 0.07952,0.28274 0.174305,0.55539 0.347982,0.77593 0.349365,0.0509 0.554062,-0.0477 0.779625,-0.12479 0.119357,0.41881 0.351342,0.64254 0.582866,0.86715 0.324564,0.0777 0.606907,-0.002 0.895697,-0.0578 0.158568,0.28665 0.361213,0.52344 0.605973,0.71218 l 0.737561,-0.28175 c -0.08034,0.27031 -0.21394,0.47969 -0.20081,1.11381 l 0.213014,0.16719 -0.163458,0.4363 c 0.741964,1.04886 1.584443,2.18614 2.898735,2.4475 0.771228,0.14846 1.4138,0.12117 2.057949,0.30369 l 0.284159,-0.87518 0.645584,0.10738 c 0.467835,-0.7452 1.020073,-1.66364 0.521715,-3.54624 l -1.925625,-3.36708 z"
         id="path5102"
         inkscape:connector-curvature="0"
         sodipodi:nodetypes="cccccccccccccccccccccccc" />
      <path
         inkscape:connector-curvature="0"
         id="circle5108"
         d="m 47.386037,282.49 a 0.39113906,0.39113906 0 0 1 -0.143167,0.53431 0.39113906,0.39113906 0 0 1 -0.534308,-0.14317 0.39113906,0.39113906 0 0 1 0.143168,-0.53431 0.39113906,0.39113906 0 0 1 0.534307,0.14317 z"
         style="opacity:1;fill:#333333;fill-opacity:1;stroke:none;stroke-width:0.24500693;stroke-linecap:round;stroke-linejoin:miter;stroke-miterlimit:4;stroke-dasharray:none;stroke-dashoffset:0;stroke-opacity:1" />
      <path
         inkscape:connector-curvature="0"
         id="path5110"
         d="m 46.925781,279.00781 c -0.03513,0.69732 -0.16435,1.26332 -0.205078,1.8086 -0.04073,0.54527 0.0104,1.07215 0.341797,1.66406 l 0.117188,-0.0645 c -0.318156,-0.56826 -0.365835,-1.05883 -0.326172,-1.58985 0.03966,-0.53102 0.169308,-1.1025 0.205078,-1.8125 z"
         style="color:#000000;font-style:normal;font-variant:normal;font-weight:normal;font-stretch:normal;font-size:medium;line-height:normal;font-family:sans-serif;font-variant-ligatures:normal;font-variant-position:normal;font-variant-caps:normal;font-variant-numeric:normal;font-variant-alternates:normal;font-feature-settings:normal;text-indent:0;text-align:start;text-decoration:none;text-decoration-line:none;text-decoration-style:solid;text-decoration-color:#000000;letter-spacing:normal;word-spacing:normal;text-transform:none;writing-mode:lr-tb;direction:ltr;text-orientation:mixed;dominant-baseline:auto;baseline-shift:baseline;text-anchor:start;white-space:normal;shape-padding:0;clip-rule:nonzero;display:inline;overflow:visible;visibility:visible;opacity:1;isolation:auto;mix-blend-mode:normal;color-interpolation:sRGB;color-interpolation-filters:linearRGB;solid-color:#000000;solid-opacity:1;vector-effect:none;fill:#333333;fill-opacity:1;fill-rule:nonzero;stroke:none;stroke-width:0.24500699;stroke-linecap:butt;stroke-linejoin:miter;stroke-miterlimit:4;stroke-dasharray:none;stroke-dashoffset:0;stroke-opacity:1;color-rendering:auto;image-rendering:auto;shape-rendering:auto;text-rendering:auto;enable-background:accumulate" />
      <path
         inkscape:connector-curvature="0"
         id="path5112"
         d="m 44.144531,280.48242 -0.0625,0.11719 c 1.007538,0.55502 1.516022,1.29331 2.685547,2.08594 l 0.07422,-0.10938 c -1.152489,-0.78108 -1.663028,-1.52402 -2.697267,-2.09375 z"
         style="color:#000000;font-style:normal;font-variant:normal;font-weight:normal;font-stretch:normal;font-size:medium;line-height:normal;font-family:sans-serif;font-variant-ligatures:normal;font-variant-position:normal;font-variant-caps:normal;font-variant-numeric:normal;font-variant-alternates:normal;font-feature-settings:normal;text-indent:0;text-align:start;text-decoration:none;text-decoration-line:none;text-decoration-style:solid;text-decoration-color:#000000;letter-spacing:normal;word-spacing:normal;text-transform:none;writing-mode:lr-tb;direction:ltr;text-orientation:mixed;dominant-baseline:auto;baseline-shift:baseline;text-anchor:start;white-space:normal;shape-padding:0;clip-rule:nonzero;display:inline;overflow:visible;visibility:visible;opacity:1;isolation:auto;mix-blend-mode:normal;color-interpolation:sRGB;color-interpolation-filters:linearRGB;solid-color:#000000;solid-opacity:1;vector-effect:none;fill:#333333;fill-opacity:1;fill-rule:nonzero;stroke:none;stroke-width:0.24500699;stroke-linecap:butt;stroke-linejoin:miter;stroke-miterlimit:4;stroke-dasharray:none;stroke-dashoffset:0;stroke-opacity:1;color-rendering:auto;image-rendering:auto;shape-rendering:auto;text-rendering:auto;enable-background:accumulate" />
      <path
         inkscape:connector-curvature="0"
         id="path5168"
         d="m 43.691406,280.20703 c -0.02774,0.002 -0.06652,0.0102 -0.08789,0.0488 -0.02133,0.0386 -0.0096,0.0773 0.0039,0.10156 0.01349,0.0243 0.03248,0.0452 0.05469,0.0664 0.04442,0.0425 0.106904,0.0848 0.179688,0.125 0.07277,0.0402 0.141543,0.069 0.201172,0.084 0.02981,0.007 0.05624,0.0132 0.08398,0.0117 0.02774,-0.002 0.06652,-0.0102 0.08789,-0.0488 0.02135,-0.0386 0.0096,-0.0773 -0.0039,-0.10156 -0.01349,-0.0243 -0.03248,-0.0452 -0.05469,-0.0664 -0.04442,-0.0425 -0.106896,-0.0848 -0.179688,-0.125 -0.07278,-0.0402 -0.141542,-0.069 -0.201171,-0.084 -0.02981,-0.007 -0.05624,-0.0132 -0.08398,-0.0117 z m 0.142578,0.17774 c 0.02742,0.0116 0.05009,0.0166 0.08008,0.0332 0.03006,0.0166 0.04583,0.0318 0.07031,0.0488 -0.02742,-0.0116 -0.05009,-0.0166 -0.08008,-0.0332 -0.03006,-0.0166 -0.04583,-0.0318 -0.07031,-0.0488 z"
         style="color:#000000;font-style:normal;font-variant:normal;font-weight:normal;font-stretch:normal;font-size:medium;line-height:normal;font-family:sans-serif;font-variant-ligatures:normal;font-variant-position:normal;font-variant-caps:normal;font-variant-numeric:normal;font-variant-alternates:normal;font-feature-settings:normal;text-indent:0;text-align:start;text-decoration:none;text-decoration-line:none;text-decoration-style:solid;text-decoration-color:#000000;letter-spacing:normal;word-spacing:normal;text-transform:none;writing-mode:lr-tb;direction:ltr;text-orientation:mixed;dominant-baseline:auto;baseline-shift:baseline;text-anchor:start;white-space:normal;shape-padding:0;clip-rule:nonzero;display:inline;overflow:visible;visibility:visible;opacity:1;isolation:auto;mix-blend-mode:normal;color-interpolation:sRGB;color-interpolation-filters:linearRGB;solid-color:#000000;solid-opacity:1;vector-effect:none;fill:#333333;fill-opacity:1;fill-rule:nonzero;stroke:none;stroke-width:0.24500693;stroke-linecap:round;stroke-linejoin:miter;stroke-miterlimit:4;stroke-dasharray:none;stroke-dashoffset:0;stroke-opacity:1;color-rendering:auto;image-rendering:auto;shape-rendering:auto;text-rendering:auto;enable-background:accumulate" />
      <path
         inkscape:connector-curvature="0"
         id="ellipse5171"
         d="m 47.056641,278.4668 c -0.04386,-0.005 -0.07445,0.0213 -0.0918,0.043 -0.01735,0.0217 -0.0298,0.0456 -0.04102,0.0742 -0.02243,0.0573 -0.03933,0.13027 -0.04883,0.2129 -0.0095,0.0826 -0.0088,0.15985 0,0.2207 0.0044,0.0304 0.0095,0.0569 0.02148,0.082 0.01197,0.0251 0.03621,0.0575 0.08008,0.0625 0.04386,0.005 0.07249,-0.0213 0.08984,-0.043 0.01735,-0.0217 0.0298,-0.0475 0.04102,-0.0762 0.02243,-0.0573 0.03933,-0.13026 0.04883,-0.21289 0.0095,-0.0826 0.0108,-0.1579 0.002,-0.21875 -0.0044,-0.0304 -0.01147,-0.0569 -0.02344,-0.082 -0.01197,-0.0251 -0.03425,-0.0575 -0.07813,-0.0625 z m -0.03125,0.25976 c -2.65e-4,0.0302 0.004,0.0532 0,0.0879 -0.0038,0.033 -0.01138,0.0537 -0.01758,0.082 3.98e-4,-0.0292 -0.0038,-0.0508 0,-0.084 0.004,-0.0349 0.01091,-0.0563 0.01758,-0.0859 z"
         style="color:#000000;font-style:normal;font-variant:normal;font-weight:normal;font-stretch:normal;font-size:medium;line-height:normal;font-family:sans-serif;font-variant-ligatures:normal;font-variant-position:normal;font-variant-caps:normal;font-variant-numeric:normal;font-variant-alternates:normal;font-feature-settings:normal;text-indent:0;text-align:start;text-decoration:none;text-decoration-line:none;text-decoration-style:solid;text-decoration-color:#000000;letter-spacing:normal;word-spacing:normal;text-transform:none;writing-mode:lr-tb;direction:ltr;text-orientation:mixed;dominant-baseline:auto;baseline-shift:baseline;text-anchor:start;white-space:normal;shape-padding:0;clip-rule:nonzero;display:inline;overflow:visible;visibility:visible;opacity:1;isolation:auto;mix-blend-mode:normal;color-interpolation:sRGB;color-interpolation-filters:linearRGB;solid-color:#000000;solid-opacity:1;vector-effect:none;fill:#333333;fill-opacity:1;fill-rule:nonzero;stroke:none;stroke-width:0.24500693;stroke-linecap:round;stroke-linejoin:miter;stroke-miterlimit:4;stroke-dasharray:none;stroke-dashoffset:0;stroke-opacity:1;color-rendering:auto;image-rendering:auto;shape-rendering:auto;text-rendering:auto;enable-background:accumulate" />
    </g>
  </g>
</svg>
